<svg width="20" height="20" viewBox="0 0 20 20" fill="none" xmlns="http://www.w3.org/2000/svg">
    <path d="M4.805 15.66v1.067c0 .441.667.441.667 0v-1.066l.86-1.193c.257-.358-.283-.748-.541-.39l-.652.905-.652-.905c-.258-.358-.799.032-.541.39l.86 1.193zM6.901 17.06h1.49c.441 0 .441-.666 0-.666H7.235v-.56h.411c.441 0 .441-.668 0-.668h-.411v-.56H8.39c.441 0 .441-.666 0-.666h-1.49a.333.333 0 0 0-.333.333v2.454c0 .184.15.333.333.333zM12.402 16.727v-.643h.136l.764.864c.292.33.792-.112.5-.442l-.496-.56c.965-.495.7-2.006-.617-2.006h-.62a.333.333 0 0 0-.333.333v2.454c0 .44.666.44.666 0zm0-2.12h.287c.71 0 .71.81 0 .81h-.287v-.81zM9.605 16.846l.107-.28h1.037l.107.28c.157.412.78.174.623-.238l-.937-2.454a.334.334 0 0 0-.623 0l-.937 2.454c-.157.412.466.65.623.238zm.625-1.639.264.691h-.527l.263-.69zM15.45 16.113c0 .285-.396.39-.545.14-.226-.379-.798-.036-.572.342.497.83 1.784.475 1.784-.482 0-1.121-1.25-.755-1.25-1.227 0-.284.395-.388.545-.139.226.379.798.036.572-.342-.497-.83-1.784-.475-1.784.481 0 1.122 1.25.755 1.25 1.227z" fill="#EB5976"/>
    <path d="m18.973 17.057.38-2.561a.333.333 0 0 0-.33-.383h-.497a.333.333 0 0 0 0 .667h.11l-.33 2.228c-.011.076-.014.002.33 2.325h-3.298v-.926h1.8c.184 0 .334-.15.334-.334v-5.22a.333.333 0 0 0-.334-.333H2.863a.333.333 0 0 0-.334.333v1.26H.978c-.204 0-.36.181-.33.383l.38 2.56-.38 2.562a.333.333 0 0 0 .33.382h4.017c.184 0 .334-.15.334-.333v-1.26h9.342v1.26c0 .184.15.333.334.333h4.018c.203 0 .36-.181.33-.382l-.38-2.561zm-15.778-3.87h13.61v4.553H3.195v-4.553zm1.467 6.146H1.364l.33-2.227c.011-.077.014-.003-.33-2.326h1.164v3.293c0 .184.15.334.334.334h1.8v.926zM2.694 11.529a7.844 7.844 0 0 1-.58-2.976C2.114 4.204 5.652.667 10 .667c4.349 0 7.887 3.538 7.887 7.886a7.843 7.843 0 0 1-.574 2.959c-.166.409.452.659.618.25.413-1.02.622-2.1.622-3.209C18.553 3.837 14.716 0 10 0 5.284 0 1.447 3.837 1.447 8.553c0 1.116.212 2.202.63 3.227.166.409.784.157.617-.251z" fill="#EB5976"/>
    <path d="M16.392 11.452A7.025 7.025 0 0 0 10 1.537a7.025 7.025 0 0 0-6.398 9.902c.182.402.79.127.608-.274A6.357 6.357 0 0 1 10 2.203a6.357 6.357 0 0 1 5.785 8.973c-.183.402.424.677.607.276z" fill="#EB5976"/>
    <path d="M13.517 5.6c.284.338.794-.091.51-.429a5.26 5.26 0 0 0-8.054 0c-.284.338.226.767.51.43a4.593 4.593 0 0 1 7.034 0zM6.751 10.74V6.76a.334.334 0 0 0-.532-.268l-.846.631c-.353.264.046.798.399.534l.313-.233v3.317c0 .44.666.44.666 0zM7.583 7.942v1.617c0 2.013 3.031 2.013 3.031 0V7.942c0-2.005-3.03-2.005-3.03 0zm2.364 0v1.617c0 1.132-1.697 1.132-1.697 0V7.942c0-1.124 1.697-1.124 1.697 0zM12.31 8.555v-1.04h.216c.44 0 .44-.667 0-.667h-.215v-.215c0-.441-.667-.441-.667 0v.215h-.215c-.441 0-.441.666 0 .666h.215v1.041c0 .441.667.441.667 0zM14.88 8.555V8.16c0-.643-.588-1.003-1.129-.865v-.661c0-.441-.666-.441-.666 0v1.922c0 .441.666.441.666 0V8.16c0-.299.463-.313.463 0v.396c0 .441.666.441.666 0z" fill="#EB5976"/>
</svg>
