<svg width="20" height="20" viewBox="0 0 20 20" fill="none" xmlns="http://www.w3.org/2000/svg">
    <path d="M19.872 3.606 16.394.128a.434.434 0 0 0-.614 0L10 5.907 4.22.127a.434.434 0 0 0-.614 0L.128 3.607a.434.434 0 0 0 0 .615L5.907 10 .127 15.78a.434.434 0 0 0 0 .614l3.479 3.479a.433.433 0 0 0 .614 0l5.78-5.78 5.78 5.78a.433.433 0 0 0 .307.127h3.478c.24 0 .435-.195.435-.435v-3.478a.434.434 0 0 0-.128-.307L14.092 10l5.78-5.78a.434.434 0 0 0 0-.614zm-1.791 11.611-1.125 1.125L5.397 4.782l1.125-1.124 11.559 11.56zm-7.773-2.046h-.001L3.658 6.52l1.125-1.123 11.559 11.558-1.125 1.125-4.91-4.91zM3.913 1.05l1.994 1.994-2.863 2.863L1.05 3.913 3.913 1.05zm0 17.9L1.05 16.087l1.124-1.124 1.432 1.431a.434.434 0 1 0 .614-.614L2.79 14.348l1.994-1.994 1.431 1.432a.434.434 0 1 0 .615-.615l-1.432-1.432 1.125-1.124 2.863 2.863-5.472 5.472zm15.217.18h-2.863l-.435-.434 2.864-2.864.434.435v2.863zm-5.652-9.745-2.863-2.863 1.124-1.124 1.432 1.431a.434.434 0 1 0 .615-.615l-1.432-1.431 1.994-1.994L15.78 4.22a.433.433 0 0 0 .614 0 .434.434 0 0 0 0-.615l-1.431-1.432 1.124-1.124 2.863 2.863-5.472 5.472z" fill="#EB5976"/>
</svg>
