<svg width="78" height="74" viewBox="0 0 78 74" fill="none" xmlns="http://www.w3.org/2000/svg">
    <path d="M2.06 39.775H.936l.007-.72H2.06c.325 0 .597-.07.817-.213.221-.142.388-.345.498-.61a2.4 2.4 0 0 0 .17-.947V37a2.66 2.66 0 0 0-.097-.756 1.48 1.48 0 0 0-.282-.552 1.18 1.18 0 0 0-.456-.34 1.545 1.545 0 0 0-.618-.116H.914v-.722h1.178c.35 0 .669.059.958.177a2.1 2.1 0 0 1 .748.502c.212.22.375.482.488.788.113.306.17.648.17 1.026v.278c0 .378-.057.72-.17 1.026a2.23 2.23 0 0 1-.488.788 2.189 2.189 0 0 1-.759.502 2.637 2.637 0 0 1-.98.174zm-.622-5.261v5.26H.531v-5.26h.907zM8.81 39.056v.719H6.018v-.72h2.794zm-2.536-4.542v5.26h-.907v-5.26h.907zm2.172 2.197v.708H6.017v-.708h2.429zm.347-2.197v.722H6.017v-.722h2.776zM12.847 39.056v.719h-2.641v-.72h2.641zm-2.388-4.542v5.26h-.907v-5.26h.907zM14.517 34.514v5.26h-.907v-5.26h.907zM19.089 39.056v.719h-2.794v-.72h2.794zm-2.537-4.542v5.26h-.907v-5.26h.907zm2.172 2.197v.708h-2.429v-.708h2.429zm.346-2.197v.722h-2.775v-.722h2.775zM21.633 38.813l1.384-4.3h1.001l-1.887 5.262h-.675l.177-.962zm-1.28-4.3 1.374 4.3.188.962h-.68l-1.879-5.261h.997zM24.607 34.514h1.861c.4 0 .741.06 1.023.18.282.12.497.299.647.535.152.234.227.523.227.867 0 .263-.048.494-.144.694a1.41 1.41 0 0 1-.408.506c-.176.135-.386.24-.63.314l-.274.134h-1.673l-.007-.72h1.254c.216 0 .397-.038.542-.115a.774.774 0 0 0 .325-.314.924.924 0 0 0 .112-.455.995.995 0 0 0-.108-.477.699.699 0 0 0-.326-.315 1.234 1.234 0 0 0-.56-.112h-.954v4.539h-.907v-5.261zm3.003 5.26-1.236-2.363.95-.003 1.255 2.32v.047h-.969zM29.598 34.514l1.221 2.51 1.222-2.51h1.005l-1.771 3.324v1.937h-.915v-1.937l-1.77-3.324h1.008zM37.512 35.215l-1.572 4.56h-.95l1.98-5.261h.607l-.065.7zm1.316 4.56-1.576-4.56-.069-.701h.611l1.988 5.26h-.954zm-.076-1.952v.72H35.89v-.72h2.862zM43.14 38.42a.774.774 0 0 0-.051-.29.565.565 0 0 0-.17-.23 1.404 1.404 0 0 0-.347-.203 4.604 4.604 0 0 0-.564-.206 6.26 6.26 0 0 1-.694-.257 2.645 2.645 0 0 1-.55-.332 1.422 1.422 0 0 1-.364-.437 1.223 1.223 0 0 1-.13-.575c0-.214.044-.41.133-.585.092-.176.22-.328.387-.455.169-.13.367-.23.596-.3a2.51 2.51 0 0 1 .76-.109c.39 0 .726.073 1.008.217.284.145.502.339.654.582.154.243.231.512.231.806h-.9a.918.918 0 0 0-.112-.46.76.76 0 0 0-.332-.317 1.202 1.202 0 0 0-.56-.116c-.215 0-.393.033-.535.098a.712.712 0 0 0-.318.264.69.69 0 0 0-.105.375c0 .1.023.19.068.271.046.08.116.154.21.224.094.068.212.132.354.192s.31.118.503.173c.291.087.545.183.762.29.217.103.398.221.542.354a1.308 1.308 0 0 1 .434 1.018c0 .222-.045.422-.134.6-.089.176-.217.327-.383.452a1.833 1.833 0 0 1-.593.285 2.797 2.797 0 0 1-.766.098c-.253 0-.502-.034-.748-.101a2.205 2.205 0 0 1-.665-.307c-.2-.14-.359-.314-.477-.52a1.47 1.47 0 0 1-.177-.734h.907c0 .17.029.316.087.437.06.12.143.22.25.296.105.075.228.13.368.166.142.037.294.055.455.055.212 0 .39-.03.531-.09a.7.7 0 0 0 .326-.254.661.661 0 0 0 .108-.375zM47.62 38.42a.774.774 0 0 0-.05-.29.566.566 0 0 0-.17-.23 1.403 1.403 0 0 0-.347-.203 4.607 4.607 0 0 0-.564-.206 6.26 6.26 0 0 1-.694-.257 2.645 2.645 0 0 1-.549-.332 1.422 1.422 0 0 1-.365-.437 1.224 1.224 0 0 1-.13-.575c0-.214.044-.41.134-.585.091-.176.22-.328.386-.455.169-.13.368-.23.597-.3a2.51 2.51 0 0 1 .758-.109c.39 0 .727.073 1.009.217.284.145.502.339.654.582.154.243.231.512.231.806h-.9a.918.918 0 0 0-.112-.46.76.76 0 0 0-.332-.317 1.2 1.2 0 0 0-.56-.116c-.215 0-.393.033-.535.098a.713.713 0 0 0-.318.264.69.69 0 0 0-.105.375c0 .1.023.19.069.271.045.08.115.154.21.224.093.068.211.132.353.192.143.06.31.118.503.173.291.087.546.183.762.29.217.103.398.221.542.354a1.308 1.308 0 0 1 .434 1.018c0 .222-.044.422-.134.6-.089.176-.216.327-.383.452a1.834 1.834 0 0 1-.592.285 2.798 2.798 0 0 1-.767.098c-.252 0-.502-.034-.748-.101a2.205 2.205 0 0 1-.665-.307c-.2-.14-.359-.314-.477-.52a1.47 1.47 0 0 1-.177-.734h.907c0 .17.03.316.087.437.06.12.143.22.25.296.105.075.228.13.368.166.142.037.294.055.455.055.212 0 .39-.03.532-.09a.7.7 0 0 0 .325-.254.661.661 0 0 0 .108-.375zM52.286 34.514h.903v3.515c0 .4-.086.735-.26 1.005-.173.27-.41.473-.708.61a2.371 2.371 0 0 1-.994.203c-.378 0-.715-.068-1.012-.203a1.616 1.616 0 0 1-.701-.61c-.169-.27-.253-.605-.253-1.005v-3.515h.903v3.515c0 .253.044.462.13.625.087.162.21.281.37.358.158.077.346.116.563.116.217 0 .404-.039.56-.116a.814.814 0 0 0 .369-.358c.087-.163.13-.372.13-.625v-3.515zM54.176 34.514h1.861c.4 0 .741.06 1.023.18.282.12.497.299.647.535.151.234.227.523.227.867 0 .263-.048.494-.144.694a1.41 1.41 0 0 1-.408.506c-.176.135-.386.24-.63.314l-.274.134h-1.673l-.008-.72h1.255c.216 0 .397-.038.542-.115a.774.774 0 0 0 .325-.314.924.924 0 0 0 .112-.455.995.995 0 0 0-.108-.477.698.698 0 0 0-.326-.315 1.234 1.234 0 0 0-.56-.112h-.954v4.539h-.907v-5.261zm3.003 5.26-1.236-2.363.95-.003 1.255 2.32v.047h-.969zM60.887 35.215l-1.572 4.56h-.95l1.98-5.261h.607l-.065.7zm1.315 4.56-1.575-4.56-.069-.701h.61l1.989 5.26h-.955zm-.075-1.952v.72h-2.863v-.72h2.862zM67.92 34.514v5.26h-.907l-2.36-3.768v3.769h-.907v-5.261h.907l2.367 3.776v-3.776h.9zM72.108 38.062h.904a2.085 2.085 0 0 1-.29.921 1.72 1.72 0 0 1-.69.633c-.296.154-.656.23-1.08.23-.326 0-.618-.057-.879-.173a1.925 1.925 0 0 1-.668-.498 2.257 2.257 0 0 1-.427-.784 3.406 3.406 0 0 1-.144-1.026v-.438c0-.378.05-.72.148-1.026.101-.306.246-.567.434-.784.188-.22.413-.386.676-.502a2.21 2.21 0 0 1 .892-.174c.42 0 .774.078 1.063.232.289.154.513.367.672.64.161.271.26.583.296.935h-.903a1.67 1.67 0 0 0-.16-.582.819.819 0 0 0-.353-.368c-.157-.087-.362-.13-.615-.13-.207 0-.388.038-.542.115-.154.077-.283.19-.387.34-.103.15-.181.334-.235.553-.05.217-.075.465-.075.744v.445c0 .264.022.505.068.722.049.215.12.399.217.553.099.154.224.273.376.358.152.084.334.126.546.126.258 0 .466-.04.625-.123a.82.82 0 0 0 .365-.357 1.64 1.64 0 0 0 .166-.582zM77.28 39.056v.719h-2.794v-.72h2.794zm-2.537-4.542v5.26h-.907v-5.26h.907zm2.172 2.197v.708h-2.429v-.708h2.429zm.346-2.197v.722h-2.775v-.722h2.775z" fill="#C9C9C9"/>
    <path fill-rule="evenodd" clip-rule="evenodd" d="M0 28.063v-1.657h10.585v-10.16l.848-.49L38.004.417 38.722 0l.719.416 26.57 15.34.846.49v10.16H78v1.657H0zM38.723 1.658 12.257 17.205v9.2h52.929v-9.2L38.723 1.658zm-.001 2.808L62.66 18.287v5.909h-1.567v-4.967L38.722 6.18 16.35 19.23v4.737h-1.567v-5.679l23.939-13.82z" fill="#747474"/>
    <path d="m38.903 11.659-1.39 3.7h-3.49l2.95 2.22-1.42 3.73 3.35-2.52 3.36 2.52-1.43-3.73 2.95-2.22h-3.5l-1.38-3.7z" fill="#C9C9C9"/>
    <path fill-rule="evenodd" clip-rule="evenodd" d="M0 45.937v1.657h10.585v10.16l.848.49 26.571 15.34.718.416.719-.416 26.57-15.34.846-.49v-10.16H78v-1.657H0zm38.723 26.405L12.257 56.795v-9.2h52.929v9.2L38.723 72.342zm-.001-2.808L62.66 55.713v-5.909h-1.567v4.967L38.722 67.818 16.35 54.772v-4.737h-1.567v5.679l23.939 13.82z" fill="#747474"/>
    <path d="m38.903 62.342-1.39-3.7h-3.49l2.95-2.22-1.42-3.73 3.35 2.52 3.36-2.52-1.43 3.73 2.95 2.22h-3.5l-1.38 3.7z" fill="#C9C9C9"/>
</svg>
