<?xml version="1.0" encoding="UTF-8"?>
<svg width="110px" height="48px" viewBox="0 0 110 48" version="1.1" xmlns="http://www.w3.org/2000/svg" xmlns:xlink="http://www.w3.org/1999/xlink">
    <title>5C712A9A-F80D-40BC-9706-A74F487E8A2D</title>
    <g id="Page-1" stroke="none" stroke-width="1" fill="none" fill-rule="evenodd">
        <g id="Interior-Landing-V4" transform="translate(-135.000000, -16.000000)" fill="#FFFFFF" fill-rule="nonzero">
            <g id="Group" transform="translate(135.000000, 16.000000)">
                <path d="M0,32.4202148 C0.0224867178,30.4524733 1.60852943,28.8608568 3.57617996,28.8314672 C4.47266865,28.8440348 5.26722015,29.1987204 5.98915886,29.8955239 L5.19041816,30.9847158 C4.72122782,30.5239038 4.15708229,30.2404347 3.56361236,30.2404347 C2.37523261,30.2780925 1.42451515,31.2398577 1.40058903,32.4285932 C1.40058903,33.6546322 2.49536649,34.6027877 3.55802676,34.6027877 C4.19059588,34.6027877 4.73798461,34.2662554 5.19460736,33.8166146 L5.98915886,34.9337345 C5.38312133,35.5355828 4.64442583,35.9894128 3.60131515,35.9894128 C1.62733088,35.98345 0.0236453399,34.3940665 0,32.4202148 Z" id="Path"></path>
                <path d="M16.6115392,32.424404 C16.6053537,30.9731338 17.4751655,29.6614335 18.8144561,29.1023945 C20.1537467,28.5433555 21.697991,28.8473943 22.7254063,29.8724025 C23.7528216,30.8974107 24.0604816,32.4409376 23.5045856,33.7815358 C22.9486895,35.122134 21.6390331,35.9950201 20.1877523,35.9922123 C18.220368,35.9815681 16.6268245,34.391758 16.6115392,32.424404 L16.6115392,32.424404 Z M22.3745306,32.4160256 C22.377903,31.5328843 21.8487435,30.7347391 21.0339613,30.394034 C20.2191791,30.0533289 19.2793762,30.2372204 18.6530994,30.859898 C18.0268226,31.4825755 17.8375175,32.4213029 18.1735208,33.2380352 C18.5095241,34.0547676 19.3046062,34.5885185 20.1877523,34.5902201 C21.3896337,34.5879572 22.3653243,33.617874 22.3745306,32.4160256 L22.3745306,32.4160256 Z" id="Shape"></path>
                <polygon id="Path" points="40.7664966 28.8007464 40.7664966 35.8595476 39.3826643 35.8595476 39.3826643 32.8600807 37.4053622 35.7436464 37.3969838 35.7436464 35.4099068 32.8600807 35.4099068 35.8595476 34.0260746 35.8595476 34.0260746 28.8007464 34.1028766 28.8007464 37.401173 33.3516135 40.6952802 28.8007464"></polygon>
                <path d="M52.1722903,28.9725036 L54.5908549,28.9725036 C55.9230203,28.9725036 57.0122122,30.0184071 57.0122122,31.3003021 C57.0122122,32.5821972 55.9230203,33.6211186 54.5908549,33.6211186 L53.5561226,33.6211186 L53.5561226,35.8553584 L52.1722903,35.8553584 L52.1722903,28.9725036 Z M55.6283799,31.2877345 C55.6283799,30.7668774 55.1633788,30.3437682 54.5908549,30.3437682 L53.5561226,30.3437682 L53.5561226,32.249854 L54.5908549,32.249854 C55.1428991,32.2702928 55.6071852,31.8397502 55.6283799,31.2877345 Z" id="Shape"></path>
                <path d="M73.1699546,34.8974281 L70.4134613,34.8974281 L69.9735953,35.8595476 L68.4780511,35.8595476 L71.7679691,28.8007464 L71.8112575,28.8007464 L75.1081575,35.8595476 L73.6056313,35.8595476 L73.1699546,34.8974281 Z M72.6309442,33.7188666 L71.7931043,31.8770153 L70.9552644,33.7188666 L72.6309442,33.7188666 Z" id="Shape"></path>
                <polygon id="Path" points="91.7588291 28.9557468 91.7588291 35.9880164 91.6945947 35.9880164 87.6073324 32.0096732 87.6073324 35.867926 86.2221037 35.867926 86.2221037 28.8510168 86.2905273 28.8510168 90.3708076 32.8195851 90.3708076 28.9557468"></polygon>
                <polygon id="Path" points="105.5008 33.0318379 103.368497 29.1009724 104.932465 29.1009724 106.189225 31.4930053 107.445985 29.1009724 109.012745 29.1009724 106.876254 33.0318379 106.876254 35.9880164 105.5008 35.9880164"></polygon>
                <polygon id="Path" points="66.6320106 5.88442887 66.6320106 8.28065098 66.6320106 21.5422601 66.6320106 23.9384822 71.4258512 23.9384822 71.4258512 21.5422601 71.4258512 8.28065098 71.4258512 5.88442887"></polygon>
                <polygon id="Path" points="23.2360931 5.86069008 23.2360931 24.1186178 21.7140173 24.1186178 12.4279585 15.1244065 12.4279585 23.9496534 7.63411786 23.9496534 7.63411786 5.70429329 9.17993247 5.70429329 18.4310813 14.664991 18.4310813 5.86069008"></polygon>
                <polygon id="Path" points="37.3648666 10.3640795 33.0360271 10.3640795 33.0360271 23.9384822 28.2366009 23.9384822 28.2366009 10.3640795 23.9077614 10.3640795 23.9077614 5.88442887 37.3704522 5.88442887"></polygon>
                <polygon id="Path" points="42.7675375 10.3417371 42.7675375 12.8622388 48.5011552 12.8622388 48.5011552 16.8601315 42.7675375 16.8601315 42.7675375 19.4476604 49.7341763 19.4476604 49.7341763 23.9384822 38.0295529 23.9384822 38.0295529 5.88442887 49.7341763 5.88442887 49.7341763 10.3417371"></polygon>
                <path d="M60.6693833,23.9384822 L55.8378399,16.0990936 L55.8378399,23.9384822 L51.0481885,23.9384822 L51.0258461,5.88442887 L57.8807728,5.88442887 C61.7781248,5.88442887 64.5667352,8.51664255 64.5667352,11.7493081 C64.5715348,13.8625613 63.3533559,15.7878065 61.4415924,16.6883743 L66.2801178,23.934293 L60.6693833,23.9384822 Z M55.8196867,13.8131871 L57.7746465,13.8243583 C58.7940183,13.8355295 59.7296062,13.1191764 59.7296062,12.0090385 C59.7296062,10.8989007 58.7884327,10.1937187 57.7746465,10.1937187 L55.8196867,10.1937187 L55.8196867,13.8131871 Z" id="Shape"></path>
                <path d="M3.47284637,5.88442847 C2.83708685,5.88405838 2.22723958,6.13635321 1.7775587,6.58577218 C1.32787783,7.03519116 1.07522787,7.64489135 1.07522787,8.28065098 L1.07522787,23.9384822 L5.86906847,23.9384822 L5.86906847,8.28065098 C5.86906847,6.95725405 4.7962433,5.88442847 3.47284637,5.88442847 Z" id="Path"></path>
                <circle id="Oval" cx="3.47703557" cy="2.3962221" r="2.3962221"></circle>
                <path d="M72.403331,14.9344962 C72.403331,9.51227562 76.7042425,5.40267093 82.3177698,5.40267093 C87.9312971,5.40267093 92.2322086,9.51227562 92.2322086,14.9344962 C92.2322086,20.3106355 87.9312971,24.3978978 82.307995,24.3978978 C76.6846929,24.3978978 72.403331,20.3106355 72.403331,14.9344962 Z M87.3783228,14.8995862 C87.3783228,12.1067865 85.1831823,9.96051997 82.314977,9.96051997 C79.4467718,9.96051997 77.2530276,12.1109757 77.2530276,14.8995862 C77.2530276,17.6881966 79.4481682,19.8177063 82.314977,19.8177063 C85.1817859,19.8177063 87.3783228,17.6798182 87.3783228,14.8995862 Z" id="Shape"></path>
                <path d="M102.850433,23.9384822 L98.0230787,16.0990936 L98.0230787,23.9384822 L93.2292381,23.9384822 L93.2068957,5.88442887 L100.061822,5.88442887 C103.959174,5.88442887 106.747785,8.51664255 106.747785,11.7493081 C106.752839,13.8622409 105.535257,15.7874016 103.624038,16.6883743 L108.462564,23.934293 L102.850433,23.9384822 Z M98.0007363,13.8131871 L99.955696,13.8243583 C100.973672,13.8355295 101.903674,13.1191764 101.903674,12.0090385 C101.903674,10.8989007 100.963897,10.1937187 99.955696,10.1937187 L98.0007363,10.1937187 L98.0007363,13.8131871 Z" id="Shape"></path>
                <rect id="Rectangle" x="89.9309417" y="44.1611445" width="20.0690583" height="1"></rect>
                <rect id="Rectangle" x="0.8099119" y="44.1611445" width="20.0690583" height="1"></rect>
                <path d="M30.7941757,46.3953843 C31.4680477,46.3953843 31.9595095,46.1955464 32.2685612,45.7958705 C32.4753702,45.5286454 32.5787747,45.2300504 32.5787747,44.9000855 C32.5787747,44.5073808 32.4637517,44.199491 32.2337057,43.9764161 C32.1035787,43.8509365 31.9072264,43.7382372 31.6446486,43.6383183 C31.8235733,43.5476941 31.9606714,43.4477751 32.0559429,43.3385614 C32.239515,43.1317524 32.331301,42.866851 32.331301,42.5438572 C32.331301,42.2673373 32.2569427,42.0233491 32.1082261,41.8118927 C31.8549432,41.4540435 31.4285449,41.2751188 30.8290311,41.2751188 L30.8290311,41.2751188 L28.6296523,41.2751188 L28.6296523,46.3953843 L30.7941757,46.3953843 Z M30.5711008,43.4396422 L29.3093336,43.4396422 L29.3093336,41.8537193 L30.546702,41.8537193 C30.8487826,41.8537193 31.0765048,41.886251 31.2298688,41.9513145 C31.5017413,42.0674994 31.6376776,42.2928979 31.6376776,42.6275102 C31.6376776,42.9597989 31.5098742,43.1898448 31.2542676,43.3176481 C31.0916089,43.3989775 30.8638866,43.4396422 30.5711008,43.4396422 L30.5711008,43.4396422 Z M30.8046323,45.8028416 L29.3093336,45.8028416 L29.3093336,44.0008149 L30.6861238,44.0008149 C30.9765859,44.0008149 31.2101174,44.0368322 31.3867183,44.1088668 C31.7190069,44.2436412 31.8851512,44.4969242 31.8851512,44.8687156 C31.8851512,45.0894668 31.8282207,45.2776862 31.7143595,45.4333739 C31.5331112,45.6796857 31.2298688,45.8028416 30.8046323,45.8028416 L30.8046323,45.8028416 Z M33.655808,47.9255385 C34.0183047,47.9255385 34.2739113,47.8209721 34.4226279,47.6118394 C34.5713445,47.4027067 34.8269511,46.8217826 35.1894478,45.869067 C35.3428118,45.4647438 35.5333549,44.941912 35.7610772,44.3005718 C36.0654814,43.4477751 36.2618338,42.9017064 36.3501342,42.6623657 L36.3501342,42.6623657 L35.6565108,42.6623657 L34.6491883,45.7017608 L33.648837,42.6623657 L32.9377858,42.6623657 L34.3180616,46.5034362 C34.2855298,46.5870892 34.2332466,46.7148925 34.1612121,46.8868461 C34.0891775,47.0587996 34.0473509,47.1540712 34.0357324,47.1726608 C33.9985533,47.2284295 33.9526603,47.2754843 33.8980534,47.3138253 C33.8434465,47.3521663 33.7580507,47.3713368 33.6418659,47.3713368 C33.6046867,47.3713368 33.5616983,47.3678513 33.5129007,47.3608802 C33.4641031,47.3539091 33.3850974,47.3353195 33.2758837,47.3051115 L33.2758837,47.3051115 L33.2758837,47.8767408 C33.3455945,47.8953304 33.4042679,47.9081107 33.4519037,47.9150818 C33.4995394,47.9220529 33.5675076,47.9255385 33.655808,47.9255385 Z M40.7872329,46.5452627 C41.3333016,46.5452627 41.812564,46.4232686 42.2250201,46.1792805 C42.6374763,45.9352923 42.8437044,45.5298073 42.8437044,44.9628253 C42.8437044,44.5073808 42.6810456,44.1599881 42.3557281,43.9206474 C42.1675086,43.7835493 41.9002835,43.6754974 41.5540527,43.5964917 L41.5540527,43.5964917 L40.8360305,43.4326711 C40.3527016,43.3211337 40.0424881,43.2281858 39.90539,43.1538275 C39.6962573,43.0376427 39.591691,42.8540707 39.591691,42.6031114 C39.591691,42.3753892 39.6811533,42.1755513 39.8600779,42.0035977 C40.0390026,41.8316442 40.3329502,41.7456674 40.7419208,41.7456674 C41.2484866,41.7456674 41.6074978,41.8792799 41.8189542,42.1465051 C41.9328153,42.2928979 42.0071736,42.5031925 42.042029,42.7773887 L42.042029,42.7773887 L42.6938259,42.7773887 C42.6938259,42.208083 42.5061874,41.7938841 42.1309104,41.5347919 C41.7556334,41.2756998 41.299608,41.1461537 40.7628341,41.1461537 C40.1795862,41.1461537 39.7287891,41.2937084 39.4104426,41.5888179 C39.0920962,41.8839273 38.932923,42.261528 38.932923,42.72162 C38.932923,43.1468564 39.0955818,43.4663647 39.4208993,43.6801448 C39.6091187,43.8033007 39.9297888,43.916 40.3829097,44.0182427 L40.3829097,44.0182427 L41.0765331,44.1750922 C41.4529719,44.2610689 41.7294918,44.3621497 41.9060928,44.4783346 C42.08037,44.5968431 42.1675086,44.7955192 42.1675086,45.0743628 C42.1675086,45.4461542 41.9606996,45.7040845 41.5470817,45.8481537 C41.3333016,45.922512 41.0962845,45.9596912 40.8360305,45.9596912 C40.2551064,45.9596912 39.8496213,45.7900613 39.6195753,45.4508016 C39.4987431,45.2695533 39.4301941,45.0336981 39.4139282,44.743236 L39.4139282,44.743236 L38.7621313,44.743236 C38.7551602,45.2962758 38.9317611,45.7342926 39.2919341,46.0572864 C39.6521071,46.3826039 40.15054,46.5452627 40.7872329,46.5452627 Z M46.6812893,47.8837119 L46.6812893,42.6623657 L46.0852611,42.6623657 L46.0852611,43.1817119 C45.978371,43.0190531 45.8668336,42.8958972 45.7506488,42.8122441 C45.5391924,42.6565565 45.2789384,42.5787126 44.9698867,42.5787126 C44.5028237,42.5787126 44.1223184,42.7704176 43.8283708,43.1538275 C43.5344232,43.5372375 43.3874494,44.0275374 43.3874494,44.6247275 C43.3874494,45.2614203 43.5442989,45.7354544 43.8579979,46.0468298 C44.171697,46.3582051 44.5272225,46.5138928 44.9245746,46.5138928 C45.2010945,46.5138928 45.4317214,46.4645142 45.6164553,46.3657571 C45.8011892,46.267 45.9458393,46.1339684 46.0504056,45.9666622 L46.0504056,45.9666622 L46.0504056,47.8837119 L46.6812893,47.8837119 Z M45.0395976,45.9736333 C44.6259796,45.9736333 44.3390031,45.7796047 44.178668,45.3915473 C44.0880439,45.1731199 44.0427318,44.9024092 44.0427318,44.5794154 C44.0427318,44.0867917 44.1397461,43.7225523 44.3337748,43.4866971 C44.5278035,43.2508419 44.760754,43.1329143 45.0326265,43.1329143 C45.4601867,43.1329143 45.7587817,43.3176481 45.9284116,43.6871159 C46.0283305,43.9032197 46.07829,44.1727685 46.07829,44.4957623 C46.07829,44.8466405 46.0329779,45.1347789 45.9423538,45.3601774 C45.7773713,45.769148 45.4764526,45.9736333 45.0395976,45.9736333 Z M48.8388415,46.4964651 C49.1804249,46.4964651 49.470887,46.3988698 49.7102278,46.2036793 C49.83106,46.106084 49.9321408,45.9864137 50.0134702,45.8446682 L50.0134702,45.8446682 L50.0064991,46.3953843 L50.5990417,46.3953843 L50.5990417,42.6623657 L49.9716436,42.6623657 L49.9716436,44.4957623 C49.9716436,44.8605827 49.9286552,45.1475592 49.8426785,45.3566919 C49.6846671,45.7470729 49.3872339,45.9422634 48.950379,45.9422634 C48.6459747,45.9422634 48.4380039,45.830726 48.3264664,45.6076511 C48.2660503,45.4868189 48.2358423,45.3311312 48.2358423,45.1405881 L48.2358423,45.1405881 L48.2358423,42.6623657 L47.594502,42.6623657 L47.594502,45.1998424 C47.594502,45.5181888 47.6467852,45.7726336 47.7513515,45.9631767 C47.9442184,46.3187023 48.306715,46.4964651 48.8388415,46.4964651 Z M52.5823168,46.5208639 C52.8704551,46.5208639 53.1341947,46.4592859 53.3735354,46.33613 C53.6128762,46.2129741 53.7964482,46.067743 53.9242515,45.9004369 C53.9451648,46.0491535 53.9811821,46.1641765 54.0323034,46.2455058 C54.1298987,46.3988698 54.2867482,46.4755518 54.502852,46.4755518 C54.5911525,46.4755518 54.6608633,46.4720663 54.7119847,46.4650952 C54.763106,46.4581241 54.8374643,46.4406963 54.9350595,46.412812 L54.9350595,46.412812 L54.9350595,45.9492345 C54.8955567,45.9562056 54.8583776,45.9614339 54.8235221,45.9649195 C54.7886667,45.968405 54.7572968,45.9701478 54.7294124,45.9701478 C54.6434356,45.9701478 54.587086,45.9503964 54.5603635,45.9108935 C54.533641,45.8713907 54.5202797,45.8191075 54.5202797,45.754044 L54.5202797,45.754044 L54.5202797,43.6034628 C54.5202797,43.2502609 54.3843435,42.9900069 54.112471,42.8227008 C53.8382748,42.6553946 53.4815873,42.5717415 53.0424087,42.5717415 C52.6636461,42.5717415 52.3307766,42.6617848 52.0438001,42.8418713 C51.7568235,43.0219577 51.607526,43.3420469 51.5959075,43.8021389 L51.5959075,43.8021389 L52.1814791,43.8021389 C52.2047161,43.6092721 52.2546755,43.464041 52.3313575,43.3664458 C52.4684556,43.1898448 52.7008253,43.1015444 53.0284665,43.1015444 C53.3119575,43.1015444 53.529804,43.1497611 53.6820062,43.2461945 C53.8342083,43.3426279 53.9103094,43.4977346 53.9103094,43.7115147 C53.9103094,43.8160811 53.8963672,43.8962486 53.8684828,43.9520173 C53.8196852,44.05426 53.7232518,44.1146761 53.5791826,44.1332656 L53.5791826,44.1332656 L52.5788312,44.2587453 C52.227953,44.3028955 51.944462,44.4202422 51.7283583,44.6107853 C51.5122545,44.8013284 51.4042026,45.0697154 51.4042026,45.4159462 C51.4042026,45.7319689 51.5139972,45.9951275 51.7335866,46.2054221 C51.9531759,46.4157166 52.236086,46.5208639 52.5823168,46.5208639 Z M52.7287096,45.9875755 C52.5474613,45.9875755 52.3906118,45.9352923 52.2581611,45.830726 C52.1257104,45.7261596 52.059485,45.5832523 52.059485,45.402004 C52.059485,45.1626632 52.1559184,44.988386 52.3487852,44.8791722 C52.4626464,44.8141087 52.6334381,44.766473 52.8611603,44.7362649 L52.8611603,44.7362649 L53.2410847,44.6874673 C53.3572696,44.6735251 53.4757781,44.6502881 53.5966103,44.6177564 C53.7174425,44.5852246 53.8161996,44.5445599 53.8928816,44.4957623 L53.8928816,44.4957623 L53.8928816,45.0011663 C53.8928816,45.3868999 53.7186044,45.6645817 53.3700499,45.8342115 C53.1632409,45.9364542 52.9494608,45.9875755 52.7287096,45.9875755 Z M56.1933412,46.3953843 L56.1933412,44.2482886 C56.1933412,43.9833872 56.2781562,43.7492748 56.447786,43.5459513 C56.6174159,43.3426279 56.8602422,43.2409661 57.1762649,43.2409661 C57.213444,43.2409661 57.2477186,43.242128 57.2790885,43.2444517 C57.3104584,43.2467754 57.3447329,43.2514228 57.3819121,43.2583939 L57.3819121,43.2583939 L57.3819121,42.5961403 C57.3145249,42.5891693 57.2668891,42.5845219 57.2390047,42.5821982 C57.2111204,42.5798745 57.1913689,42.5787126 57.1797504,42.5787126 C56.9311149,42.5787126 56.7115256,42.6687559 56.5209825,42.8488423 C56.3304393,43.0289288 56.210769,43.1817119 56.1619713,43.3071915 L56.1619713,43.3071915 L56.1619713,42.6623657 L55.5659432,42.6623657 L55.5659432,46.3953843 L56.1933412,46.3953843 Z M59.3826148,46.527835 C59.5731579,46.527835 59.7439496,46.5092454 59.8949899,46.4720663 C60.1761572,46.4070027 60.4120124,46.2815231 60.6025555,46.0956274 C60.7164167,45.9887374 60.8192402,45.8510583 60.9110262,45.6825903 C61.0028123,45.5141223 61.0568382,45.3613393 61.0731041,45.2242412 L61.0731041,45.2242412 L60.4561626,45.2242412 C60.4096887,45.3892236 60.330683,45.5344547 60.2191456,45.6599343 C60.0239551,45.8760381 59.7625392,45.98409 59.434898,45.98409 C59.0840198,45.98409 58.8249276,45.8696479 58.6576215,45.6407638 C58.4903153,45.4118797 58.400853,45.1080564 58.3892345,44.7292938 L58.3892345,44.7292938 L61.1253873,44.7292938 C61.1253873,44.352855 61.1067977,44.0786588 61.0696185,43.9067052 C61.027792,43.655746 60.9441389,43.4361567 60.8186593,43.2479372 C60.6885323,43.050423 60.499151,42.889507 60.2505155,42.7651893 C60.00188,42.6408715 59.7451115,42.5787126 59.4802101,42.5787126 C58.9550546,42.5787126 58.5298182,42.7657702 58.2045006,43.1398853 C57.8791831,43.5140005 57.7165244,44.0008149 57.7165244,44.6003286 C57.7165244,45.2091372 57.8780213,45.6825903 58.2010151,46.0206882 C58.5240089,46.358786 58.9178755,46.527835 59.3826148,46.527835 Z M60.4805615,44.2308609 L58.4066622,44.2308609 C58.4182807,43.9101908 58.5216852,43.6458703 58.7168757,43.4378994 C58.9120663,43.2299286 59.1537307,43.1259432 59.4418691,43.1259432 C59.8438686,43.1259432 60.1308451,43.2769834 60.3027987,43.579064 C60.3957465,43.7417228 60.4550008,43.9589884 60.4805615,44.2308609 L60.4805615,44.2308609 Z M66.0678899,46.3953843 L66.0678899,44.3319417 L68.0023673,41.2751188 L67.1902353,41.2751188 L65.7193354,43.7359135 L64.2484355,41.2751188 L63.4397891,41.2751188 L65.3742665,44.3319417 L65.3742665,46.3953843 L66.0678899,46.3953843 Z M68.9922621,46.5208639 C69.2804004,46.5208639 69.54414,46.4592859 69.7834807,46.33613 C70.0228215,46.2129741 70.2063935,46.067743 70.3341968,45.9004369 C70.3551101,46.0491535 70.3911274,46.1641765 70.4422487,46.2455058 C70.539844,46.3988698 70.6966935,46.4755518 70.9127973,46.4755518 C71.0010978,46.4755518 71.0708087,46.4720663 71.12193,46.4650952 C71.1730513,46.4581241 71.2474096,46.4406963 71.3450048,46.412812 L71.3450048,46.412812 L71.3450048,45.9492345 C71.305502,45.9562056 71.2683229,45.9614339 71.2334674,45.9649195 C71.198612,45.968405 71.1672421,45.9701478 71.1393577,45.9701478 C71.0533809,45.9701478 70.9970313,45.9503964 70.9703088,45.9108935 C70.9435863,45.8713907 70.930225,45.8191075 70.930225,45.754044 L70.930225,45.754044 L70.930225,43.6034628 C70.930225,43.2502609 70.7942888,42.9900069 70.5224163,42.8227008 C70.2482201,42.6553946 69.8915326,42.5717415 69.452354,42.5717415 C69.0735914,42.5717415 68.7407219,42.6617848 68.4537454,42.8418713 C68.1667688,43.0219577 68.0174713,43.3420469 68.0058529,43.8021389 L68.0058529,43.8021389 L68.5914244,43.8021389 C68.6146614,43.6092721 68.6646208,43.464041 68.7413028,43.3664458 C68.8784009,43.1898448 69.1107706,43.1015444 69.4384118,43.1015444 C69.7219028,43.1015444 69.9397493,43.1497611 70.0919515,43.2461945 C70.2441536,43.3426279 70.3202547,43.4977346 70.3202547,43.7115147 C70.3202547,43.8160811 70.3063125,43.8962486 70.2784281,43.9520173 C70.2296305,44.05426 70.1331971,44.1146761 69.9891279,44.1332656 L69.9891279,44.1332656 L68.9887765,44.2587453 C68.6378983,44.3028955 68.3544073,44.4202422 68.1383036,44.6107853 C67.9221998,44.8013284 67.8141479,45.0697154 67.8141479,45.4159462 C67.8141479,45.7319689 67.9239425,45.9951275 68.1435319,46.2054221 C68.3631212,46.4157166 68.6460313,46.5208639 68.9922621,46.5208639 Z M69.1386549,45.9875755 C68.9574066,45.9875755 68.8005571,45.9352923 68.6681064,45.830726 C68.5356557,45.7261596 68.4694303,45.5832523 68.4694303,45.402004 C68.4694303,45.1626632 68.5658637,44.988386 68.7587305,44.8791722 C68.8725917,44.8141087 69.0433834,44.766473 69.2711056,44.7362649 L69.2711056,44.7362649 L69.65103,44.6874673 C69.7672149,44.6735251 69.8857234,44.6502881 70.0065556,44.6177564 C70.1273878,44.5852246 70.2261449,44.5445599 70.3028269,44.4957623 L70.3028269,44.4957623 L70.3028269,45.0011663 C70.3028269,45.3868999 70.1285497,45.6645817 69.7799952,45.8342115 C69.5731862,45.9364542 69.3594061,45.9875755 69.1386549,45.9875755 Z M72.6032865,46.3953843 L72.6032865,44.2482886 C72.6032865,43.9833872 72.6881015,43.7492748 72.8577313,43.5459513 C73.0273612,43.3426279 73.2701875,43.2409661 73.5862102,43.2409661 C73.6233894,43.2409661 73.6576639,43.242128 73.6890338,43.2444517 C73.7204037,43.2467754 73.7546782,43.2514228 73.7918574,43.2583939 L73.7918574,43.2583939 L73.7918574,42.5961403 C73.7244702,42.5891693 73.6768344,42.5845219 73.64895,42.5821982 C73.6210657,42.5798745 73.6013142,42.5787126 73.5896958,42.5787126 C73.3410602,42.5787126 73.1214709,42.6687559 72.9309278,42.8488423 C72.7403846,43.0289288 72.6207143,43.1817119 72.5719166,43.3071915 L72.5719166,43.3071915 L72.5719166,42.6623657 L71.9758885,42.6623657 L71.9758885,46.3953843 L72.6032865,46.3953843 Z M75.6078262,46.527835 C75.8657566,46.527835 76.0946407,46.4767136 76.2944786,46.374471 C76.4943165,46.2722283 76.6674319,46.106084 76.8138248,45.8760381 L76.8138248,45.8760381 L76.8138248,46.3953843 L77.378483,46.3953843 L77.378483,41.2576911 L76.7754838,41.2576911 L76.7754838,43.1433709 C76.6337383,42.9690936 76.5070968,42.8470996 76.3955594,42.7773887 C76.2026926,42.6565565 75.9633518,42.5961403 75.6775371,42.5961403 C75.1616765,42.5961403 74.7649053,42.7953973 74.4872236,43.1939113 C74.2095418,43.5924253 74.0707009,44.0635547 74.0707009,44.6072997 C74.0707009,45.1882239 74.2229031,45.6535441 74.5273073,46.0032605 C74.8317116,46.3529768 75.1918845,46.527835 75.6078262,46.527835 Z M75.8030168,45.9806044 C75.4289016,45.9806044 75.1570291,45.84583 74.9873992,45.5762812 C74.8177694,45.3067324 74.7329545,44.9721201 74.7329545,44.5724443 C74.7329545,44.1030576 74.8311307,43.747532 75.027483,43.5058676 C75.2238354,43.2642031 75.4800229,43.1433709 75.7960457,43.1433709 C76.0795366,43.1433709 76.3177155,43.2566511 76.5105824,43.4832115 C76.7034492,43.7097719 76.7998826,44.0589073 76.7998826,44.5306178 C76.7998826,44.9976808 76.7063538,45.356111 76.5192962,45.6059083 C76.3322386,45.8557057 76.0934788,45.9806044 75.8030168,45.9806044 Z M79.6266595,46.5382916 C80.1425201,46.5382916 80.526511,46.4174594 80.7786321,46.1757949 C81.0307531,45.9341305 81.1568137,45.647154 81.1568137,45.3148654 C81.1568137,44.9709583 81.0348196,44.7188372 80.7908315,44.5585021 C80.6374675,44.4562595 80.3353869,44.3505313 79.8845898,44.2413175 L79.8845898,44.2413175 L79.46981,44.1402367 C79.2885616,44.0960865 79.1514635,44.0449652 79.0585157,43.9868728 C78.8981806,43.8892775 78.8180131,43.7591505 78.8180131,43.5964917 C78.8180131,43.4477751 78.8790101,43.3281048 79.0010042,43.2374806 C79.1229983,43.1468564 79.3025038,43.1015444 79.5395209,43.1015444 C79.8950464,43.1015444 80.1448438,43.1840356 80.288913,43.349018 C80.3772135,43.4652029 80.427173,43.594168 80.4387914,43.7359135 L80.4387914,43.7359135 L81.0313341,43.7359135 C81.0359815,43.4942491 80.9604613,43.2688505 80.8047737,43.0597178 C80.5561381,42.7297529 80.1506531,42.5647704 79.5883185,42.5647704 C79.1584346,42.5647704 78.8162703,42.6739842 78.5618255,42.8924117 C78.3073807,43.1108391 78.1801584,43.3966538 78.1801584,43.7498557 C78.1801584,44.0496126 78.3149328,44.2843059 78.5844816,44.4539358 C78.7355218,44.551531 78.9702152,44.6398315 79.2885616,44.7188372 L79.2885616,44.7188372 L79.7869946,44.8443168 C80.0542197,44.911704 80.2331443,44.9709583 80.3237685,45.0220796 C80.465514,45.1057327 80.5363867,45.2277267 80.5363867,45.3880618 C80.5363867,45.5995182 80.4480862,45.7557868 80.2714853,45.8568676 C80.0948843,45.9579484 79.890399,46.0084888 79.6580294,46.0084888 C79.2676484,46.0084888 78.9934522,45.907408 78.8354408,45.7052464 C78.749464,45.5937089 78.6971809,45.4333739 78.6785913,45.2242412 L78.6785913,45.2242412 L78.075592,45.2242412 C78.0918579,45.5960326 78.2155947,45.9079889 78.4468025,46.16011 C78.6780104,46.4122311 79.071296,46.5382916 79.6266595,46.5382916 Z" id="BySquareYards"></path>
            </g>
        </g>
    </g>
</svg>