<svg width="54" height="54" viewBox="0 0 54 54" fill="none" xmlns="http://www.w3.org/2000/svg">
<path d="M19.363 42.052L11.456 46.365C10.992 46.618 10.575 46.929 10.187 47.268C14.797 51.155 20.748 53.5 27.25 53.5C33.704 53.5 39.617 51.19 44.214 47.356C43.79 46.998 43.33 46.676 42.82 46.422L34.353 42.189C33.259 41.642 32.568 40.524 32.568 39.301V35.979C32.806 35.708 33.078 35.36 33.369 34.949C34.523 33.319 35.396 31.526 36.001 29.645C37.087 29.31 37.887 28.307 37.887 27.115V23.569C37.887 22.789 37.54 22.092 37.001 21.604V16.478C37.001 16.478 38.054 8.50098 27.251 8.50098C16.448 8.50098 17.501 16.478 17.501 16.478V21.604C16.961 22.092 16.615 22.789 16.615 23.569V27.115C16.615 28.049 17.106 28.871 17.841 29.346C18.727 33.203 21.047 35.979 21.047 35.979V39.219C21.046 40.399 20.4 41.486 19.363 42.052Z" fill="#E7ECED"/>
<path d="M27.7029 0.503946C13.0699 0.253946 1.00395 11.9139 0.753949 26.5469C0.611949 34.8439 4.30995 42.3009 10.1979 47.2599C10.5829 46.9239 10.9959 46.6159 11.4549 46.3659L19.3619 42.0529C20.3989 41.4869 21.0449 40.3999 21.0449 39.2179V35.9779C21.0449 35.9779 18.7239 33.2019 17.8389 29.3449C17.1049 28.8699 16.6129 28.0489 16.6129 27.1139V23.5679C16.6129 22.7879 16.9599 22.0909 17.4989 21.6029V16.4769C17.4989 16.4769 16.4459 8.49995 27.2489 8.49995C38.0519 8.49995 36.999 16.4769 36.999 16.4769V21.6029C37.539 22.0909 37.8849 22.7879 37.8849 23.5679V27.1139C37.8849 28.3059 37.0849 29.3089 35.999 29.6439C35.394 31.5249 34.521 33.3179 33.367 34.9479C33.076 35.3589 32.8039 35.7069 32.5659 35.9779V39.2999C32.5659 40.5229 33.257 41.6419 34.351 42.1879L42.818 46.4209C43.326 46.6749 43.785 46.9959 44.208 47.3529C49.9179 42.5909 53.6069 35.4709 53.7439 27.4529C53.9959 12.8199 42.3369 0.753946 27.7029 0.503946Z" fill="#AEAEAE"/>
</svg>
