<svg width="76" height="76" viewBox="0 0 76 76" fill="none" xmlns="http://www.w3.org/2000/svg">
<path fill-rule="evenodd" clip-rule="evenodd" d="M67.132 42.2573C64.7818 58.3456 49.8321 69.4833 33.7428 67.1321C17.6555 64.7819 6.51581 49.8322 8.86701 33.7429C11.2182 17.6546 26.1689 6.5169 42.2562 8.86711C58.3445 11.2173 69.4832 26.168 67.132 42.2573ZM71.1701 37.5989C71.1501 35.7309 75.1631 33.5118 74.856 31.7089C74.5438 29.8749 70.0175 29.1105 69.4262 27.3726C68.8319 25.6167 71.9585 22.259 71.101 20.6292C70.2406 18.9923 65.7012 19.6647 64.5987 18.1829C63.4961 16.7041 65.4391 12.546 64.1164 11.2523C62.7988 9.96467 58.6876 11.9997 57.1759 10.9282C55.6771 9.86562 56.2414 5.30928 54.5735 4.48485C52.9347 3.67443 49.66 6.88409 47.8741 6.3308C46.1362 5.79152 45.2617 1.28421 43.4048 1.01307C41.5468 0.740926 39.4187 4.81002 37.5988 4.83003C35.7308 4.85004 33.5127 0.835975 31.7088 1.14213C29.8738 1.45629 29.1094 5.98162 27.3735 6.57293C25.6156 7.16823 22.2599 4.04162 20.6301 4.89806C18.9922 5.75951 19.6646 10.2978 18.1848 11.4014C16.704 12.504 12.5459 10.561 11.2522 11.8837C9.96558 13.2013 12.0016 17.3124 10.9281 18.8232C9.86653 20.322 5.30919 19.7567 4.48376 21.4266C3.67434 23.0654 6.885 26.3401 6.33171 28.125C5.79143 29.8629 1.28411 30.7384 1.01297 32.5953C0.741835 34.4523 4.80993 36.5804 4.82994 38.4013C4.84895 40.2693 0.836884 42.4874 1.14304 44.2903C1.4572 46.1253 5.98253 46.8897 6.57283 48.6256C7.16814 50.3835 4.04253 53.7392 4.89797 55.369C5.75942 57.0069 10.2988 56.3345 11.4003 57.8153C12.5049 59.296 10.5609 63.4532 11.8846 64.7468C13.2012 66.0335 17.3114 63.9985 18.8231 65.072C20.3219 66.1326 19.7576 70.6909 21.4265 71.5153C23.0643 72.3247 26.34 69.1151 28.1249 69.6684C29.8628 70.2087 30.7373 74.715 32.5952 74.9871C34.4532 75.2573 36.5803 71.1892 38.4012 71.1701C40.2692 71.1501 42.4883 75.1632 44.2902 74.856C46.1252 74.5439 46.8896 70.0176 48.6265 69.4263C50.3834 68.8309 53.7421 71.9586 55.3699 71.1021C57.0078 70.2397 56.3344 65.7013 57.8162 64.5988C59.295 63.4962 63.4541 65.4382 64.7478 64.1155C66.0344 62.7978 64.0004 58.6877 65.0719 57.176C66.1335 55.6782 70.6908 56.2425 71.5162 54.5736C72.3257 52.9348 69.115 49.6591 69.6693 47.8742C70.2086 46.1363 74.7159 45.2618 74.986 43.4049C75.2572 41.5469 71.1891 39.4188 71.1701 37.5989Z" fill="#373737" stroke="#747474"/>
<path fill-rule="evenodd" clip-rule="evenodd" d="M42.0694 10.3023C26.763 8.06553 12.5375 18.6616 10.3019 33.9675C8.06519 49.2754 18.6629 63.4984 33.9672 65.7351C49.2746 67.9719 63.4961 57.3738 65.7348 42.0679C67.9715 26.761 57.3727 12.538 42.0694 10.3023Z" fill="#373737" stroke="#747474" stroke-width="0.5"/>
<path d="M50.0195 20.7909H42.1929V19.9995H50.0195V20.7909Z" fill="white"/>
<path d="M38.0195 21.5834L40.0047 22.999L39.2461 20.7078L41.2303 19.2912H38.7771L38.0195 17L37.2619 19.2922H34.8087L36.7929 20.7078L36.0364 23L38.0195 21.5834Z" fill="white"/>
<path d="M33.8452 20.7909H26.0195V19.9995H33.8452V20.7909Z" fill="white"/>
<path d="M50.0195 56.7909H42.1929V55.9995H50.0195V56.7909Z" fill="white"/>
<path d="M38.0195 57.5834L40.0047 58.999L39.2461 56.7078L41.2303 55.2912H38.7771L38.0195 53L37.2619 55.2922H34.8087L36.7929 56.7078L36.0364 59L38.0195 57.5834Z" fill="white"/>
<path d="M33.8452 56.7909H26.0195V55.9995H33.8452V56.7909Z" fill="white"/>
<path d="M56.8642 34.5357C56.8642 33.7305 56.8642 32.919 56.8642 32.1013C56.8642 31.2773 56.8642 30.4627 56.8642 29.6575C56.6205 29.6575 56.3736 29.6575 56.1235 29.6575C55.8734 29.6575 55.6265 29.6575 55.3828 29.6575C55.3828 29.414 55.3828 29.1675 55.3828 28.9178C55.3828 28.6618 55.3828 28.4121 55.3828 28.1687C56.146 28.1687 56.9188 28.1687 57.7012 28.1687C58.4836 28.1687 59.2563 28.1687 60.0195 28.1687C60.0195 28.4121 60.0195 28.6618 60.0195 28.9178C60.0195 29.1675 60.0195 29.414 60.0195 29.6575C59.7822 29.6575 59.5385 29.6575 59.2884 29.6575C59.0383 29.6575 58.7914 29.6575 58.5477 29.6575C58.5477 30.4627 58.5477 31.2773 58.5477 32.1013C58.5477 32.919 58.5477 33.7305 58.5477 34.5357C58.2719 34.5357 57.993 34.5357 57.7108 34.5357C57.4286 34.5357 57.1464 34.5357 56.8642 34.5357Z" fill="white"/>
<path d="M54.8434 32.6154C54.8434 33.0898 54.7151 33.4768 54.4586 33.7765C54.2085 34.0698 53.8686 34.2821 53.4389 34.4132C53.0156 34.5442 52.5411 34.6004 52.0152 34.5817C51.4893 34.5692 50.9538 34.4912 50.4087 34.3476C50.4087 34.0792 50.4087 33.8108 50.4087 33.5424C50.4087 33.274 50.4087 33.0055 50.4087 32.7371C50.9089 32.9119 51.3643 33.0211 51.7747 33.0648C52.1851 33.1085 52.5122 33.0929 52.7559 33.018C52.9996 32.9369 53.1214 32.8027 53.1214 32.6154C53.1214 32.4843 53.0541 32.3782 52.9194 32.2971C52.7848 32.2097 52.6084 32.1316 52.3903 32.063C52.1787 31.9943 51.9543 31.9163 51.717 31.8289C51.4797 31.7353 51.252 31.6198 51.034 31.4824C50.8223 31.3389 50.6492 31.1547 50.5145 30.93C50.3798 30.699 50.3125 30.4119 50.3125 30.0686C50.3125 29.6441 50.4279 29.2852 50.6588 28.9918C50.8897 28.6984 51.2007 28.4768 51.5919 28.327C51.9895 28.1772 52.4384 28.1023 52.9387 28.1023C53.4453 28.1023 53.968 28.1772 54.5067 28.327C54.5067 28.5954 54.5067 28.8638 54.5067 29.1323C54.5067 29.4007 54.5067 29.6691 54.5067 29.9375C54.0578 29.7502 53.6441 29.6379 53.2657 29.6004C52.8938 29.5567 52.5956 29.5755 52.3711 29.6566C52.1467 29.7315 52.0344 29.8564 52.0344 30.0311C52.0344 30.156 52.1018 30.259 52.2364 30.3401C52.3711 30.4213 52.5443 30.4962 52.7559 30.5648C52.9739 30.6273 53.2016 30.7053 53.4389 30.7989C53.6762 30.8863 53.9006 31.0049 54.1123 31.1547C54.3303 31.2983 54.5067 31.4887 54.6414 31.7259C54.776 31.9569 54.8434 32.2534 54.8434 32.6154Z" fill="white"/>
<path d="M46.4215 34.685C45.9534 34.685 45.5205 34.6038 45.1229 34.4415C44.7252 34.273 44.3821 34.0389 44.0936 33.7393C43.805 33.4397 43.5805 33.087 43.4202 32.6812C43.2599 32.2692 43.1797 31.8229 43.1797 31.3423C43.1797 30.8616 43.2599 30.4184 43.4202 30.0127C43.5805 29.6069 43.805 29.2574 44.0936 28.964C44.3821 28.6644 44.7252 28.4334 45.1229 28.2711C45.5205 28.1026 45.9534 28.0183 46.4215 28.0183C46.8897 28.0183 47.3194 28.1026 47.7106 28.2711C48.1082 28.4334 48.4513 28.6644 48.7399 28.964C49.0349 29.2574 49.2625 29.6069 49.4229 30.0127C49.5832 30.4184 49.6634 30.8616 49.6634 31.3423C49.6634 31.8229 49.5832 32.2692 49.4229 32.6812C49.2625 33.087 49.0349 33.4397 48.7399 33.7393C48.4513 34.0389 48.1082 34.273 47.7106 34.4415C47.3194 34.6038 46.8897 34.685 46.4215 34.685ZM46.4215 33.1681C46.7358 33.1681 47.0051 33.0932 47.2296 32.9434C47.454 32.7873 47.6272 32.572 47.749 32.2973C47.8773 32.0227 47.9414 31.7043 47.9414 31.3423C47.9414 30.9802 47.8773 30.665 47.749 30.3966C47.6272 30.1282 47.454 29.9191 47.2296 29.7692C47.0051 29.6132 46.7358 29.5352 46.4215 29.5352C46.1137 29.5352 45.8443 29.6101 45.6135 29.7599C45.389 29.9097 45.2126 30.1219 45.0844 30.3966C44.9625 30.665 44.9016 30.9802 44.9016 31.3423C44.9016 31.7043 44.9625 32.0227 45.0844 32.2973C45.2126 32.572 45.389 32.7873 45.6135 32.9434C45.8443 33.0932 46.1137 33.1681 46.4215 33.1681Z" fill="white"/>
<path d="M37.7305 31.3517C37.7305 30.871 37.8074 30.4341 37.9613 30.0408C38.1217 29.6413 38.3461 29.2949 38.6347 29.0015C38.9233 28.7081 39.2696 28.4803 39.6736 28.318C40.0777 28.1557 40.5234 28.0683 41.0108 28.0558C41.5046 28.0433 42.0305 28.1182 42.5884 28.2805C42.5884 28.5427 42.5884 28.808 42.5884 29.0764C42.5884 29.3386 42.5884 29.6007 42.5884 29.8629C42.21 29.6881 41.8349 29.5882 41.4629 29.5633C41.0909 29.5383 40.7543 29.5882 40.4528 29.7131C40.1514 29.8379 39.9109 30.0377 39.7314 30.3123C39.5518 30.5807 39.462 30.9272 39.462 31.3517C39.462 31.7761 39.5518 32.1257 39.7314 32.4004C39.9109 32.6688 40.1514 32.8654 40.4528 32.9902C40.7543 33.1151 41.0909 33.165 41.4629 33.1401C41.8349 33.1151 42.21 33.0152 42.5884 32.8404C42.5884 33.1026 42.5884 33.3679 42.5884 33.6363C42.5884 33.8985 42.5884 34.1607 42.5884 34.4228C42.0305 34.5851 41.5046 34.66 41.0108 34.6475C40.5234 34.6351 40.0777 34.5477 39.6736 34.3854C39.2696 34.2231 38.9233 33.9952 38.6347 33.7018C38.3461 33.4085 38.1217 33.0651 37.9613 32.6719C37.8074 32.2724 37.7305 31.8323 37.7305 31.3517Z" fill="white"/>
<path d="M28.6544 28.1687C28.8019 28.8116 28.9494 29.464 29.0969 30.1256C29.2444 30.7873 29.3887 31.4427 29.5298 32.0919C29.6773 31.4427 29.8248 30.7873 29.9723 30.1256C30.1262 29.464 30.2737 28.8116 30.4148 28.1687C30.6649 28.1687 30.9183 28.1687 31.1748 28.1687C31.4313 28.1687 31.6846 28.1687 31.9347 28.1687C32.0887 28.8116 32.2426 29.4608 32.3965 30.1163C32.5504 30.7717 32.7043 31.424 32.8582 32.0732C33.0057 31.424 33.15 30.7717 33.2911 30.1163C33.4386 29.4608 33.5829 28.8116 33.724 28.1687C33.9805 28.1687 34.2371 28.1687 34.4936 28.1687C34.7565 28.1687 35.0162 28.1687 35.2728 28.1687C35.0355 29.2174 34.7982 30.2786 34.5609 31.3522C34.3236 32.4259 34.0863 33.4871 33.8491 34.5357C33.5348 34.5357 33.2142 34.5357 32.8871 34.5357C32.5664 34.5357 32.2458 34.5357 31.9251 34.5357C31.7905 33.9552 31.6526 33.3716 31.5115 32.7848C31.3704 32.1918 31.2325 31.605 31.0978 31.0245C30.9696 31.605 30.8381 32.1918 30.7034 32.7848C30.5688 33.3716 30.4373 33.9552 30.309 34.5357C29.9948 34.5357 29.6773 34.5357 29.3567 34.5357C29.0424 34.5357 28.7282 34.5357 28.4139 34.5357C28.1767 33.4871 27.9394 32.4259 27.7021 31.3522C27.4648 30.2786 27.2275 29.2174 26.9902 28.1687C27.266 28.1687 27.5418 28.1687 27.8175 28.1687C28.0997 28.1687 28.3787 28.1687 28.6544 28.1687Z" fill="white"/>
<path d="M23.4899 34.685C23.0217 34.685 22.5888 34.6038 22.1912 34.4415C21.7936 34.273 21.4505 34.0389 21.1619 33.7393C20.8733 33.4397 20.6489 33.087 20.4885 32.6812C20.3282 32.2692 20.248 31.8229 20.248 31.3423C20.248 30.8616 20.3282 30.4184 20.4885 30.0127C20.6489 29.6069 20.8733 29.2574 21.1619 28.964C21.4505 28.6644 21.7936 28.4334 22.1912 28.2711C22.5888 28.1026 23.0217 28.0183 23.4899 28.0183C23.958 28.0183 24.3877 28.1026 24.7789 28.2711C25.1765 28.4334 25.5196 28.6644 25.8082 28.964C26.1032 29.2574 26.3309 29.6069 26.4912 30.0127C26.6515 30.4184 26.7317 30.8616 26.7317 31.3423C26.7317 31.8229 26.6515 32.2692 26.4912 32.6812C26.3309 33.087 26.1032 33.4397 25.8082 33.7393C25.5196 34.0389 25.1765 34.273 24.7789 34.4415C24.3877 34.6038 23.958 34.685 23.4899 34.685ZM23.4899 33.1681C23.8041 33.1681 24.0735 33.0932 24.2979 32.9434C24.5224 32.7873 24.6955 32.572 24.8174 32.2973C24.9457 32.0227 25.0098 31.7043 25.0098 31.3423C25.0098 30.9802 24.9457 30.665 24.8174 30.3966C24.6955 30.1282 24.5224 29.9191 24.2979 29.7692C24.0735 29.6132 23.8041 29.5352 23.4899 29.5352C23.182 29.5352 22.9127 29.6101 22.6818 29.7599C22.4574 29.9097 22.281 30.1219 22.1527 30.3966C22.0309 30.665 21.97 30.9802 21.97 31.3423C21.97 31.7043 22.0309 32.0227 22.1527 32.2973C22.281 32.572 22.4574 32.7873 22.6818 32.9434C22.9127 33.0932 23.182 33.1681 23.4899 33.1681Z" fill="white"/>
<path d="M16.0195 34.5357C16.0195 33.4871 16.0195 32.4259 16.0195 31.3522C16.0195 30.2786 16.0195 29.2174 16.0195 28.1687C16.3017 28.1687 16.5839 28.1687 16.8661 28.1687C17.1482 28.1687 17.4272 28.1687 17.703 28.1687C17.703 28.9739 17.703 29.7886 17.703 30.6125C17.703 31.4302 17.703 32.2417 17.703 33.047C18.0429 33.047 18.386 33.047 18.7323 33.047C19.0786 33.047 19.4185 33.047 19.752 33.047C19.752 33.2904 19.752 33.5401 19.752 33.796C19.752 34.0457 19.752 34.2923 19.752 34.5357C19.1363 34.5357 18.5142 34.5357 17.8857 34.5357C17.2573 34.5357 16.6352 34.5357 16.0195 34.5357Z" fill="white"/>
<path d="M47.4661 43.7182C46.7957 43.7182 46.2035 43.5717 45.6894 43.2787C45.1754 42.9753 44.7732 42.5673 44.4827 42.0546C44.1921 41.5315 44.0469 40.9456 44.0469 40.2969C44.0469 39.6483 44.1921 39.0728 44.4827 38.5706C44.7732 38.058 45.1754 37.6552 45.6894 37.3622C46.2035 37.0588 46.7957 36.9071 47.4661 36.9071C47.9689 36.9071 48.4271 36.996 48.8405 37.1739C49.2651 37.3413 49.6283 37.5767 49.93 37.8801C50.2428 38.1835 50.4775 38.5445 50.6339 38.963C50.8015 39.371 50.8853 39.8157 50.8853 40.2969C50.8853 40.9456 50.7401 41.5315 50.4496 42.0546C50.159 42.5673 49.7568 42.9753 49.2428 43.2787C48.7399 43.5717 48.1477 43.7182 47.4661 43.7182ZM47.5164 47.7985C48.6114 46.0408 49.7177 44.2622 50.8351 42.4627C51.9525 40.6631 53.0587 38.8845 54.1537 37.1268C54.5448 37.1268 54.9415 37.1268 55.3437 37.1268C55.746 37.1268 56.1427 37.1268 56.5338 37.1268C55.4387 38.8845 54.3325 40.6631 53.2151 42.4627C52.0977 44.2622 50.9915 46.0408 49.8964 47.7985C49.5054 47.7985 49.1087 47.7985 48.7064 47.7985C48.3042 47.7985 47.9075 47.7985 47.5164 47.7985ZM47.4661 41.6623C47.8348 41.6623 48.1254 41.542 48.3377 41.3013C48.55 41.0502 48.6561 40.7154 48.6561 40.2969C48.6561 39.8784 48.55 39.5489 48.3377 39.3082C48.1254 39.0676 47.8348 38.9473 47.4661 38.9473C47.0974 38.9473 46.8124 39.0676 46.6113 39.3082C46.4102 39.5489 46.3096 39.8784 46.3096 40.2969C46.3096 40.7154 46.4102 41.0502 46.6113 41.3013C46.8124 41.542 47.0974 41.6623 47.4661 41.6623ZM56.6008 48.0182C56.098 48.0182 55.6343 47.9345 55.2097 47.7671C54.7962 47.5893 54.4331 47.3486 54.1202 47.0452C53.8185 46.7313 53.5838 46.3651 53.4162 45.9467C53.2598 45.5282 53.1816 45.0783 53.1816 44.597C53.1816 43.9483 53.3268 43.3729 53.6174 42.8707C53.9079 42.358 54.3102 41.9552 54.8242 41.6623C55.3382 41.3589 55.9304 41.2072 56.6008 41.2072C57.2824 41.2072 57.8747 41.3589 58.3775 41.6623C58.8915 41.9552 59.2937 42.358 59.5843 42.8707C59.8748 43.3729 60.02 43.9483 60.02 44.597C60.02 45.0783 59.9362 45.5282 59.7686 45.9467C59.6122 46.3651 59.3775 46.7313 59.0647 47.0452C58.763 47.3486 58.3998 47.5893 57.9752 47.7671C57.5618 47.9345 57.1036 48.0182 56.6008 48.0182ZM56.6008 45.9623C56.9696 45.9623 57.2601 45.842 57.4724 45.6014C57.6847 45.3503 57.7908 45.0155 57.7908 44.597C57.7908 44.1785 57.6847 43.8489 57.4724 43.6083C57.2601 43.3677 56.9696 43.2473 56.6008 43.2473C56.2321 43.2473 55.9471 43.3677 55.746 43.6083C55.5449 43.8489 55.4443 44.1785 55.4443 44.597C55.4443 45.0155 55.5449 45.3503 55.746 45.6014C55.9471 45.842 56.2321 45.9623 56.6008 45.9623Z" fill="white"/>
<path d="M39.3457 47.7975C39.3457 46.0399 39.3457 44.2612 39.3457 42.4617C39.3457 40.6622 39.3457 38.8835 39.3457 37.1259C39.8374 37.1259 40.329 37.1259 40.8207 37.1259C41.3123 37.1259 41.7984 37.1259 42.2789 37.1259C42.2789 38.8835 42.2789 40.6622 42.2789 42.4617C42.2789 44.2612 42.2789 46.0399 42.2789 47.7975C41.7984 47.7975 41.3123 47.7975 40.8207 47.7975C40.329 47.7975 39.8374 47.7975 39.3457 47.7975Z" fill="white"/>
<path d="M24.875 47.7975C24.875 46.0399 24.875 44.2612 24.875 42.4617C24.875 40.6622 24.875 38.8835 24.875 37.1259C25.5678 37.1259 26.2662 37.1259 26.9701 37.1259C27.6741 37.1259 28.3724 37.1259 29.0652 37.1259C29.3893 38.193 29.7077 39.2759 30.0206 40.3744C30.3447 41.4625 30.6631 42.5402 30.976 43.6073C31.2889 42.5402 31.6017 41.4625 31.9146 40.3744C32.2386 39.2759 32.5571 38.193 32.87 37.1259C33.5628 37.1259 34.2555 37.1259 34.9483 37.1259C35.6411 37.1259 36.3283 37.1259 37.0099 37.1259C37.0211 38.8835 37.0323 40.6622 37.0434 42.4617C37.0546 44.2612 37.0658 46.0399 37.077 47.7975C36.6077 47.7975 36.1328 47.7975 35.6523 47.7975C35.183 47.7975 34.7137 47.7975 34.2444 47.7975C34.2444 46.6048 34.2444 45.4016 34.2444 44.188C34.2444 42.9639 34.2444 41.7555 34.2444 40.5628C33.9091 41.7555 33.5683 42.9639 33.2219 44.188C32.8756 45.4016 32.5347 46.6048 32.1995 47.7975C31.7861 47.7975 31.3615 47.7975 30.9257 47.7975C30.5011 47.7975 30.0765 47.7975 29.6519 47.7975C29.3166 46.6257 28.9814 45.4435 28.6462 44.2508C28.311 43.0476 27.9758 41.8601 27.6406 40.6883C27.6406 41.8601 27.6406 43.0476 27.6406 44.2508C27.6406 45.4435 27.6406 46.6257 27.6406 47.7975C27.1936 47.7975 26.7355 47.7975 26.2662 47.7975C25.7969 47.7975 25.3331 47.7975 24.875 47.7975Z" fill="white"/>
<path d="M16.0195 47.7975C16.0195 46.0399 16.0195 44.2612 16.0195 42.4617C16.0195 40.6622 16.0195 38.8835 16.0195 37.1259C17.1481 37.1259 18.2878 37.1259 19.4388 37.1259C20.5897 37.1259 21.7294 37.1259 22.858 37.1259C22.858 37.5234 22.858 37.9315 22.858 38.35C22.858 38.7685 22.858 39.1765 22.858 39.5741C22.2099 39.5741 21.5562 39.5741 20.897 39.5741C20.2489 39.5741 19.6008 39.5741 18.9527 39.5741C18.9527 39.8356 18.9527 40.0972 18.9527 40.3587C18.9527 40.6098 18.9527 40.8662 18.9527 41.1277C19.5449 41.1277 20.1427 41.1277 20.7461 41.1277C21.3495 41.1277 21.9417 41.1277 22.5228 41.1277C22.5228 41.5148 22.5228 41.9072 22.5228 42.3048C22.5228 42.7023 22.5228 43.0999 22.5228 43.4975C21.9417 43.4975 21.3495 43.4975 20.7461 43.4975C20.1427 43.4975 19.5449 43.4975 18.9527 43.4975C18.9527 43.8009 18.9527 44.1095 18.9527 44.4234C18.9527 44.7373 18.9527 45.0459 18.9527 45.3493C19.6008 45.3493 20.2489 45.3493 20.897 45.3493C21.5562 45.3493 22.2099 45.3493 22.858 45.3493C22.858 45.7469 22.858 46.1549 22.858 46.5734C22.858 46.9919 22.858 47.4 22.858 47.7975C21.7294 47.7975 20.5897 47.7975 19.4388 47.7975C18.2878 47.7975 17.1481 47.7975 16.0195 47.7975Z" fill="white"/>
</svg>
