<svg width="102" height="74" viewBox="0 0 102 74" fill="none" xmlns="http://www.w3.org/2000/svg">
<path fill-rule="evenodd" clip-rule="evenodd" d="M51.3029 0C35.2898 0 21.603 10.026 16.2981 24.0652H18.7217C23.9016 11.2769 36.5337 2.24137 51.3029 2.24137C66.0732 2.24137 78.7064 11.2769 83.8852 24.0652H86.3099C81.005 10.026 67.3171 0 51.3029 0Z" fill="#747474"/>
<path fill-rule="evenodd" clip-rule="evenodd" d="M36.2136 23.4626H37.8019C41.1865 20.4076 45.7129 18.5239 50.6977 18.5239C55.6836 18.5239 60.2134 20.4076 63.5957 23.4626H65.184C61.5306 19.7657 56.3967 17.4463 50.6977 17.4463C45.0032 17.4463 39.866 19.7657 36.2136 23.4626Z" fill="#747474"/>
<path fill-rule="evenodd" clip-rule="evenodd" d="M99.7186 48.6562H2.28033L6.79411 38.5559L2.28033 28.4589H99.7186L95.2059 38.5559L99.7186 48.6562ZM0 26.8252L5.24083 38.5559L0 50.2888H102L96.757 38.5559L102 26.8252H0Z" fill="#747474"/>
<path fill-rule="evenodd" clip-rule="evenodd" d="M13.2756 38.6237C13.2756 39.6218 12.4655 40.4301 11.4649 40.4301C10.4644 40.4301 9.6543 39.6218 9.6543 38.6237C9.6543 37.6276 10.4644 36.8203 11.4649 36.8203C12.4655 36.8203 13.2756 37.6276 13.2756 38.6237Z" fill="#C9C9C9"/>
<path fill-rule="evenodd" clip-rule="evenodd" d="M88.7222 38.6237C88.7222 39.6218 89.5351 40.4301 90.5343 40.4301C91.5336 40.4301 92.3435 39.6218 92.3435 38.6237C92.3435 37.6276 91.5336 36.8203 90.5343 36.8203C89.5351 36.8203 88.7222 37.6276 88.7222 38.6237Z" fill="#C9C9C9"/>
<path fill-rule="evenodd" clip-rule="evenodd" d="M65.184 52.3418H63.5957C60.2134 55.3957 55.6836 57.2802 50.6977 57.2802C45.7129 57.2802 41.1865 55.3957 37.8019 52.3418H36.2136C39.866 56.0403 45.0032 58.3581 50.6977 58.3581C56.3967 58.3581 61.5306 56.0403 65.184 52.3418Z" fill="#747474"/>
<path fill-rule="evenodd" clip-rule="evenodd" d="M51.301 74.0005C66.3805 74.0005 79.3715 65.084 85.1003 52.3418H82.6545C77.0907 63.8466 65.1466 71.8067 51.301 71.8067C37.4575 71.8067 25.5113 63.8466 19.9453 52.3418H17.5027C23.2315 65.084 36.2226 74.0005 51.301 74.0005Z" fill="#747474"/>
<path fill-rule="evenodd" clip-rule="evenodd" d="M34.5142 21.6836C34.1535 22.0388 33.7043 22.231 33.1656 22.2572C32.6268 22.2843 32.157 22.1415 31.7572 21.8305L28.4224 19.2375C28.0169 18.9215 27.7986 18.5271 27.7676 18.0562C27.7378 17.5842 27.9009 17.1717 28.2581 16.8185C28.6188 16.4633 29.068 16.2721 29.6045 16.2469C30.1421 16.2218 30.6131 16.3657 31.0163 16.6796L31.7124 17.221L30.8635 18.0582L30.1478 17.5007C30.0008 17.388 29.8308 17.3357 29.6343 17.3468C29.439 17.3558 29.2748 17.4252 29.145 17.554C29.0152 17.6818 28.9577 17.8318 28.9692 18.0018C28.983 18.1719 29.0623 18.3148 29.2093 18.4275L32.5533 21.0286C32.6992 21.1433 32.8692 21.1936 33.0622 21.1845C33.2552 21.1745 33.4171 21.105 33.5469 20.9762C33.6767 20.8485 33.7376 20.6995 33.7273 20.5295C33.7181 20.3584 33.6388 20.2165 33.4929 20.1028L32.2925 19.1701L31.8388 19.6178L30.9117 18.8974L32.2155 17.6124L34.3499 19.2727C34.7577 19.5886 34.9737 19.9821 35.0035 20.452C35.0323 20.9219 34.8691 21.3335 34.5142 21.6836Z" fill="#C9C9C9"/>
<path fill-rule="evenodd" clip-rule="evenodd" d="M37.2643 18.8551C36.8416 19.1738 36.3692 19.3017 35.8471 19.2344C35.3261 19.1694 34.9035 18.9323 34.5791 18.5232L30.782 13.721L31.7211 13.0141L35.5103 17.8053C35.6279 17.9542 35.7816 18.0391 35.9725 18.0623C36.1635 18.0854 36.3353 18.0391 36.4879 17.9233C36.6404 17.8098 36.7275 17.6598 36.7512 17.4745C36.7761 17.2904 36.7297 17.1239 36.6122 16.9761L32.8229 12.1849L33.8231 11.4307L37.6202 16.2329C37.9502 16.6486 38.0779 17.1107 38.0045 17.6201C37.931 18.1284 37.6835 18.5397 37.2643 18.8551Z" fill="#C9C9C9"/>
<path fill-rule="evenodd" clip-rule="evenodd" d="M37.7121 11.018L38.6928 14.008L39.4594 13.609L37.7121 11.018ZM39.0399 15.1302L39.5837 16.8877L38.5057 17.4482L36.2124 9.76537L37.6375 9.02539L42.2479 15.5047L41.1591 16.0708L40.1222 14.5685L39.0399 15.1302Z" fill="#C9C9C9"/>
<path fill-rule="evenodd" clip-rule="evenodd" d="M44.3943 8.88968C44.2851 8.46784 44.0281 8.31453 43.6263 8.42766L42.9888 8.60528L43.5947 10.9281L44.2311 10.7494C44.3994 10.7029 44.5248 10.6014 44.6105 10.446C44.6951 10.2884 44.7155 10.1235 44.6706 9.95012L44.3943 8.88968ZM43.307 7.31648C43.8965 7.15155 44.3718 7.20018 44.7349 7.45815C45.0531 7.68335 45.2816 8.05973 45.4182 8.58414L45.6926 9.63928C45.8262 10.1531 45.7507 10.6405 45.4672 11.1004L47.0745 14.0502L45.9333 14.3705L44.5799 11.8151C44.5503 11.8236 44.5187 11.832 44.485 11.8416L43.8761 12.0118L44.588 14.7459L43.5314 15.0419L41.6426 7.78273L43.307 7.31648Z" fill="#C9C9C9"/>
<path fill-rule="evenodd" clip-rule="evenodd" d="M49.7736 7.81826L49.5696 10.8555L50.3118 10.8017L49.7736 7.81826ZM49.476 11.9888L49.33 13.7625L48.2864 13.8378L48.993 6.11777L50.3717 6.0166L51.9077 13.573L50.8538 13.6505L50.5215 11.9124L49.476 11.9888Z" fill="#C9C9C9"/>
<path fill-rule="evenodd" clip-rule="evenodd" d="M55.0596 6.2037L55.9253 11.6986L56.7035 6.42421L57.9425 6.59126L56.7851 14.4394L55.454 14.2601L54.4903 9.00574L53.7483 14.0318L52.5105 13.8648L53.6678 6.0166L55.0596 6.2037Z" fill="#C9C9C9"/>
<path fill-rule="evenodd" clip-rule="evenodd" d="M60.0937 8.68113L58.9104 8.29134L59.2954 7.2207L62.7683 8.36488L62.3834 9.43657L61.2046 9.04887L59.0519 15.0419L57.9399 14.6752L60.0937 8.68113Z" fill="#C9C9C9"/>
<path fill-rule="evenodd" clip-rule="evenodd" d="M60.9585 15.8231L65.0506 9.02539L68.2011 10.6494L67.5809 11.6806L65.5384 10.6264L64.4221 12.48L65.9141 13.2499L65.2951 14.2812L63.8019 13.5102L62.6856 15.3638L64.7292 16.418L64.109 17.4482L60.9585 15.8231Z" fill="#C9C9C9"/>
<path fill-rule="evenodd" clip-rule="evenodd" d="M64.5835 17.8627L69.6827 12.0332L72.4296 14.0249L71.6566 14.9076L69.8737 13.6155L68.483 15.2061L69.7863 16.1496L69.0133 17.0334L67.7111 16.0888L66.3193 17.6784L68.1022 18.9706L67.3304 19.8544L64.5835 17.8627Z" fill="#C9C9C9"/>
<path fill-rule="evenodd" clip-rule="evenodd" d="M69.3219 20.3595L69.8148 20.8927C69.9441 21.0316 70.1065 21.1054 70.2998 21.112C70.4942 21.1175 70.6623 21.0602 70.8053 20.939L73.9848 18.2099C74.1301 18.0854 74.2078 17.93 74.2216 17.7427C74.2342 17.5554 74.1781 17.3935 74.0512 17.2568L73.5582 16.7247L69.3219 20.3595ZM71.6196 21.7819C71.2182 22.1256 70.7504 22.2832 70.2163 22.2567C69.681 22.2303 69.2361 22.0254 68.8827 21.6419L67.6006 20.2559L73.6783 15.04L74.9604 16.4261C75.3173 16.8128 75.4774 17.2623 75.4419 17.7747C75.4076 18.2892 75.1914 18.7156 74.7934 19.0572L71.6196 21.7819Z" fill="#C9C9C9"/>
<path fill-rule="evenodd" clip-rule="evenodd" d="M28.1812 60.1421C27.8442 59.7645 27.6752 59.3073 27.6771 58.7696C27.6781 58.2319 27.8459 57.7717 28.1783 57.39L30.9506 54.2061C31.2883 53.819 31.6949 53.6224 32.1683 53.6161C32.6426 53.6111 33.0474 53.7951 33.3825 54.1692C33.7195 54.5468 33.8875 55.004 33.8847 55.5393C33.8817 56.0758 33.7129 56.5371 33.3773 56.922L32.7985 57.5867L32.0043 56.6978L32.6002 56.0146C32.7208 55.8741 32.7821 55.7076 32.7813 55.5115C32.7824 55.3166 32.7215 55.1494 32.5992 55.0135C32.478 54.8776 32.3308 54.8126 32.1598 54.8151C31.9888 54.8199 31.8415 54.8913 31.7209 55.0318L28.94 58.2244C28.8175 58.3637 28.7582 58.5303 28.7571 58.7229C28.7571 58.9155 28.8182 59.0804 28.9404 59.2163C29.0617 59.3522 29.2077 59.4206 29.3786 59.4192C29.5504 59.419 29.6967 59.3476 29.8183 59.2083L30.8156 58.0621L30.3907 57.587L31.161 56.7019L32.3801 58.067L30.6051 60.1048C30.2672 60.4942 29.8617 60.6886 29.3894 60.6937C28.9172 60.6977 28.5134 60.5138 28.1812 60.1421Z" fill="#C9C9C9"/>
<path fill-rule="evenodd" clip-rule="evenodd" d="M32.4048 64.1727C31.981 63.8556 31.7274 63.4382 31.6484 62.9193C31.5675 62.4022 31.6797 61.9319 31.9848 61.5083L35.5691 56.5462L36.5095 57.2512L32.9337 62.2027C32.8225 62.3564 32.783 62.5271 32.8133 62.7165C32.8436 62.9058 32.9357 63.0577 33.0894 63.1719C33.2409 63.2868 33.4095 63.3289 33.5947 63.3005C33.7792 63.2736 33.927 63.1833 34.0371 63.03L37.6129 58.0785L38.6159 58.8289L35.0316 63.791C34.7217 64.2218 34.3113 64.4715 33.7998 64.5416C33.2894 64.6113 32.8245 64.4875 32.4048 64.1727Z" fill="#C9C9C9"/>
<path fill-rule="evenodd" clip-rule="evenodd" d="M39.9495 61.1809L38.2957 63.8562L39.0932 64.1886L39.9495 61.1809ZM37.6614 64.8442L36.6684 66.3916L35.5473 65.9239L39.9425 59.2237L41.4238 59.8427L39.4374 67.5491L38.305 67.0767L38.7862 65.3145L37.6614 64.8442Z" fill="#C9C9C9"/>
<path fill-rule="evenodd" clip-rule="evenodd" d="M45.4078 62.6928C45.5015 62.2673 45.342 62.0137 44.9327 61.9316L44.2843 61.7996L43.7724 64.1451L44.4204 64.2756C44.5914 64.3107 44.7491 64.2774 44.8958 64.1779C45.0426 64.0761 45.1354 63.9384 45.1739 63.7635L45.4078 62.6928ZM45.1514 60.7962C45.7513 60.9176 46.1527 61.1773 46.3594 61.5724C46.541 61.9179 46.5741 62.3573 46.4585 62.8867L46.2252 63.9518C46.1116 64.4704 45.8237 64.8703 45.3628 65.151L45.4595 68.511L44.2976 68.2769L44.2487 65.3839C44.2185 65.378 44.1865 65.3711 44.1522 65.3643L43.5326 65.2388L42.929 67.9989L41.8535 67.7817L43.4572 60.4539L45.1514 60.7962Z" fill="#C9C9C9"/>
<path fill-rule="evenodd" clip-rule="evenodd" d="M49.167 63.1669L48.9629 66.2041L49.7051 66.1503L49.167 63.1669ZM48.8693 67.3374L48.7233 69.1111L47.6797 69.1864L48.3864 61.4664L49.765 61.3652L51.301 68.9217L50.2471 68.9992L49.9148 67.261L48.8693 67.3374Z" fill="#C9C9C9"/>
<path fill-rule="evenodd" clip-rule="evenodd" d="M53.756 61.0401L55.5657 66.3017L55.4132 60.9728L56.6625 60.9228L56.89 68.8521L55.5478 68.9059L53.6834 63.8981L53.8283 68.9763L52.5802 69.026L52.3527 61.0968L53.756 61.0401Z" fill="#C9C9C9"/>
<path fill-rule="evenodd" clip-rule="evenodd" d="M59.723 61.2231L58.582 61.7227L58.1494 60.6703L61.4984 59.2041L61.9317 60.2573L60.7954 60.7554L63.2186 66.645L62.1461 67.1141L59.723 61.2231Z" fill="#C9C9C9"/>
<path fill-rule="evenodd" clip-rule="evenodd" d="M67.0575 65.1536L62.8391 58.433L65.721 56.3721L66.3613 57.3911L64.4917 58.7266L65.6417 60.5596L67.0073 59.584L67.648 60.6019L66.281 61.5781L67.4311 63.4111L69.3012 62.0746L69.9404 63.0931L67.0575 65.1536Z" fill="#C9C9C9"/>
<path fill-rule="evenodd" clip-rule="evenodd" d="M71.2303 62.3171L66.7896 55.9748L69.3928 53.7998L70.065 54.761L68.3759 56.1729L69.5878 57.9028L70.8214 56.8705L71.4947 57.832L70.2603 58.8629L71.4709 60.5937L73.16 59.1818L73.8336 60.1421L71.2303 62.3171Z" fill="#C9C9C9"/>
<path fill-rule="evenodd" clip-rule="evenodd" d="M75.5921 57.3908L76.094 56.8951C76.2247 56.7651 76.2925 56.6035 76.2956 56.4125C76.2975 56.2203 76.2398 56.0553 76.1213 55.9161L73.4546 52.8216C73.333 52.6802 73.183 52.606 73.0035 52.5956C72.824 52.5863 72.6699 52.6444 72.5414 52.7721L72.0405 53.2678L75.5921 57.3908ZM77.0551 55.1985C77.4049 55.595 77.5702 56.0612 77.5531 56.5971C77.5361 57.1342 77.3395 57.5839 76.9634 57.9449L75.6036 59.2544L70.2966 53.2522L71.6563 51.9426C72.0357 51.5781 72.4812 51.4097 72.9927 51.4363C73.5063 51.4617 73.9353 51.671 74.2828 52.0641L77.0551 55.1985Z" fill="#C9C9C9"/>
<path d="M24.4721 40.816V41.6249H21.5232V40.816H24.4721ZM21.8055 35.7063V41.6249H20.793V35.7063H21.8055Z" fill="#C9C9C9"/>
<path d="M29.6722 38.503V38.8282C29.6722 39.2753 29.6144 39.6764 29.4987 40.0314C29.3831 40.3864 29.2177 40.6886 29.0025 40.9379C28.79 41.1872 28.5346 41.3783 28.236 41.5111C27.9375 41.6411 27.6067 41.7062 27.2436 41.7062C26.8832 41.7062 26.5538 41.6411 26.2552 41.5111C25.9594 41.3783 25.7026 41.1872 25.4847 40.9379C25.2669 40.6886 25.0974 40.3864 24.9764 40.0314C24.8581 39.6764 24.7989 39.2753 24.7989 38.8282V38.503C24.7989 38.0558 24.8581 37.6561 24.9764 37.3038C25.0947 36.9488 25.2615 36.6467 25.4766 36.3973C25.6945 36.1453 25.9513 35.9543 26.2472 35.8242C26.5457 35.6914 26.8752 35.625 27.2355 35.625C27.5986 35.625 27.9294 35.6914 28.228 35.8242C28.5265 35.9543 28.7833 36.1453 28.9985 36.3973C29.2136 36.6467 29.379 36.9488 29.4947 37.3038C29.613 37.6561 29.6722 38.0558 29.6722 38.503ZM28.6596 38.8282V38.4949C28.6596 38.1642 28.6273 37.8729 28.5628 37.6209C28.5009 37.3662 28.4081 37.1534 28.2844 36.9827C28.1634 36.8093 28.0141 36.6792 27.8366 36.5925C27.6591 36.503 27.4588 36.4583 27.2355 36.4583C27.0123 36.4583 26.8133 36.503 26.6385 36.5925C26.4637 36.6792 26.3144 36.8093 26.1907 36.9827C26.0697 37.1534 25.9769 37.3662 25.9123 37.6209C25.8478 37.8729 25.8155 38.1642 25.8155 38.4949V38.8282C25.8155 39.1588 25.8478 39.4515 25.9123 39.7062C25.9769 39.961 26.071 40.1764 26.1947 40.3525C26.3211 40.526 26.4717 40.6574 26.6466 40.7468C26.8214 40.8336 27.0204 40.8769 27.2436 40.8769C27.4695 40.8769 27.6699 40.8336 27.8447 40.7468C28.0195 40.6574 28.1674 40.526 28.2885 40.3525C28.4095 40.1764 28.5009 39.961 28.5628 39.7062C28.6273 39.4515 28.6596 39.1588 28.6596 38.8282Z" fill="#C9C9C9"/>
<path d="M32.1572 40.2956L33.3272 35.7063H33.9403L33.8718 36.8892L32.6212 41.6249H31.9838L32.1572 40.2956ZM31.2818 35.7063L32.2299 40.2591L32.3146 41.6249H31.6368L30.2773 35.7063H31.2818ZM35.2676 40.2469L36.2035 35.7063H37.2121L35.8525 41.6249H35.1748L35.2676 40.2469ZM34.1784 35.7063L35.3362 40.3078L35.5056 41.6249H34.8682L33.6378 36.8892L33.5732 35.7063H34.1784Z" fill="#C9C9C9"/>
<path d="M41.807 40.816V41.6249H38.6886V40.816H41.807ZM38.975 35.7063V41.6249H37.9624V35.7063H38.975ZM41.3995 38.1778V38.9745H38.6886V38.1778H41.3995ZM41.7868 35.7063V36.5193H38.6886V35.7063H41.7868Z" fill="#C9C9C9"/>
<path d="M45.7242 40.1005C45.7242 39.9786 45.7053 39.8702 45.6677 39.7753C45.6327 39.6805 45.5695 39.5938 45.4781 39.5152C45.3866 39.4366 45.2576 39.3607 45.0908 39.2875C44.9268 39.2116 44.717 39.1344 44.4615 39.0558C44.1818 38.9691 43.9236 38.8729 43.6869 38.7672C43.4529 38.6588 43.2485 38.5342 43.0737 38.3932C42.8989 38.2496 42.7631 38.0857 42.6663 37.9014C42.5694 37.7144 42.521 37.4989 42.521 37.255C42.521 37.0139 42.5708 36.7944 42.6703 36.5965C42.7725 36.3987 42.9164 36.228 43.102 36.0843C43.2902 35.938 43.5121 35.8255 43.7676 35.7469C44.0231 35.6656 44.3055 35.625 44.6148 35.625C45.0505 35.625 45.4256 35.7063 45.7403 35.8689C46.0577 36.0315 46.3011 36.2496 46.4705 36.5234C46.6426 36.7971 46.7287 37.0992 46.7287 37.4298H45.7242C45.7242 37.2347 45.6825 37.0626 45.5991 36.9136C45.5184 36.7618 45.3947 36.6426 45.228 36.5559C45.0639 36.4692 44.8555 36.4258 44.6027 36.4258C44.3633 36.4258 44.1643 36.4624 44.0056 36.5356C43.8469 36.6087 43.7286 36.7076 43.6506 36.8323C43.5726 36.957 43.5336 37.0979 43.5336 37.255C43.5336 37.3662 43.5592 37.4678 43.6103 37.5599C43.6614 37.6494 43.7394 37.7334 43.8442 37.8119C43.9491 37.8878 44.0809 37.9596 44.2396 38.0274C44.3983 38.0951 44.5852 38.1602 44.8003 38.2225C45.1258 38.3201 45.4095 38.4285 45.6516 38.5477C45.8936 38.6642 46.0953 38.797 46.2567 38.9461C46.418 39.0951 46.5391 39.2645 46.6198 39.4542C46.7004 39.6412 46.7408 39.8539 46.7408 40.0924C46.7408 40.3417 46.691 40.5666 46.5915 40.7672C46.492 40.965 46.3495 41.1344 46.1639 41.2753C45.981 41.4135 45.7605 41.5205 45.5023 41.5964C45.2468 41.6696 44.9617 41.7062 44.647 41.7062C44.3647 41.7062 44.0863 41.6682 43.812 41.5924C43.5403 41.5165 43.2929 41.4013 43.0697 41.2468C42.8465 41.0897 42.669 40.8945 42.5372 40.6615C42.4054 40.4257 42.3395 40.1507 42.3395 39.8363H43.3521C43.3521 40.0287 43.3843 40.1927 43.4489 40.3282C43.5161 40.4637 43.6089 40.5748 43.7273 40.6615C43.8456 40.7455 43.9828 40.8078 44.1387 40.8485C44.2974 40.8891 44.4669 40.9094 44.647 40.9094C44.8837 40.9094 45.0814 40.8756 45.2401 40.8078C45.4014 40.7401 45.5225 40.6452 45.6031 40.5233C45.6838 40.4013 45.7242 40.2604 45.7242 40.1005Z" fill="#C9C9C9"/>
<path d="M50.0528 35.7063V41.6249H49.0483V35.7063H50.0528ZM51.8965 35.7063V36.5193H47.2208V35.7063H51.8965Z" fill="#C9C9C9"/>
<path d="M56.7657 39.4176H55.2368V38.6087H56.7657C57.032 38.6087 57.2471 38.5653 57.4112 38.4786C57.5752 38.3919 57.6949 38.2726 57.7702 38.1209C57.8482 37.9664 57.8872 37.7903 57.8872 37.5924C57.8872 37.4055 57.8482 37.2307 57.7702 37.0681C57.6949 36.9028 57.5752 36.77 57.4112 36.6697C57.2471 36.5694 57.032 36.5193 56.7657 36.5193H55.5474V41.6249H54.5348V35.7063H56.7657C57.2202 35.7063 57.6062 35.7876 57.9235 35.9502C58.2436 36.1101 58.487 36.3323 58.6537 36.6169C58.8204 36.8987 58.9038 37.2212 58.9038 37.5843C58.9038 37.9664 58.8204 38.2943 58.6537 38.568C58.487 38.8417 58.2436 39.0518 57.9235 39.1981C57.6062 39.3444 57.2202 39.4176 56.7657 39.4176Z" fill="#C9C9C9"/>
<path d="M59.8115 35.7063H61.8891C62.3356 35.7063 62.7161 35.774 63.0308 35.9095C63.3454 36.045 63.5862 36.2456 63.7529 36.5112C63.9223 36.774 64.0071 37.0992 64.0071 37.4868C64.0071 37.7821 63.9533 38.0423 63.8457 38.2672C63.7381 38.4922 63.5862 38.6818 63.3898 38.8363C63.1935 38.9881 62.9595 39.106 62.6879 39.19L62.3813 39.3404H60.5135L60.5054 38.5314H61.9052C62.1473 38.5314 62.349 38.4881 62.5104 38.4014C62.6717 38.3146 62.7928 38.1968 62.8735 38.0477C62.9568 37.896 62.9985 37.7252 62.9985 37.5355C62.9985 37.3296 62.9582 37.1507 62.8775 36.999C62.7995 36.8445 62.6785 36.7266 62.5144 36.6453C62.3504 36.5613 62.1419 36.5193 61.8891 36.5193H60.8241V41.6249H59.8115V35.7063ZM63.1639 41.6249L61.7842 38.9664L62.8452 38.9623L64.2451 41.572V41.6249H63.1639Z" fill="#C9C9C9"/>
<path d="M66.0968 35.7063V41.6249H65.0842V35.7063H66.0968Z" fill="#C9C9C9"/>
<path d="M70.8248 39.6981H71.8334C71.8011 40.0856 71.6935 40.4311 71.5106 40.7347C71.3277 41.0355 71.0709 41.2726 70.7401 41.446C70.4093 41.6195 70.0072 41.7062 69.5339 41.7062C69.1708 41.7062 68.844 41.6411 68.5536 41.5111C68.2631 41.3783 68.0143 41.1913 67.8072 40.9501C67.6002 40.7062 67.4415 40.4122 67.3312 40.068C67.2236 39.7238 67.1698 39.339 67.1698 38.9136V38.4217C67.1698 37.9962 67.225 37.6114 67.3352 37.2672C67.4482 36.9231 67.6096 36.629 67.8193 36.3851C68.0291 36.1385 68.2806 35.9502 68.5737 35.8201C68.8696 35.69 69.2017 35.625 69.5702 35.625C70.0381 35.625 70.4335 35.7117 70.7562 35.8852C71.079 36.0586 71.3291 36.2984 71.5066 36.6047C71.6868 36.9109 71.797 37.2618 71.8374 37.6575H70.8288C70.8019 37.4027 70.7428 37.1846 70.6513 37.003C70.5626 36.8215 70.4308 36.6832 70.256 36.5884C70.0812 36.4908 69.8526 36.4421 69.5702 36.4421C69.3389 36.4421 69.1372 36.4854 68.9651 36.5721C68.7929 36.6589 68.649 36.7862 68.5334 36.9542C68.4178 37.1223 68.3303 37.3296 68.2712 37.5762C68.2147 37.8201 68.1865 38.0992 68.1865 38.4136V38.9136C68.1865 39.2116 68.212 39.4826 68.2631 39.7265C68.3169 39.9677 68.3976 40.175 68.5052 40.3485C68.6154 40.5219 68.7553 40.6561 68.9247 40.7509C69.0941 40.8458 69.2972 40.8932 69.5339 40.8932C69.8216 40.8932 70.0543 40.8471 70.2318 40.755C70.412 40.6628 70.5478 40.5287 70.6392 40.3525C70.7334 40.1737 70.7952 39.9555 70.8248 39.6981Z" fill="#C9C9C9"/>
<path d="M76.5977 40.816V41.6249H73.4793V40.816H76.5977ZM73.7657 35.7063V41.6249H72.7531V35.7063H73.7657ZM76.1903 38.1778V38.9745H73.4793V38.1778H76.1903ZM76.5775 35.7063V36.5193H73.4793V35.7063H76.5775Z" fill="#C9C9C9"/>
<path d="M80.5149 40.1005C80.5149 39.9786 80.4961 39.8702 80.4584 39.7753C80.4235 39.6805 80.3603 39.5938 80.2688 39.5152C80.1774 39.4366 80.0483 39.3607 79.8815 39.2875C79.7175 39.2116 79.5077 39.1344 79.2522 39.0558C78.9725 38.9691 78.7143 38.8729 78.4776 38.7672C78.2437 38.6588 78.0393 38.5342 77.8644 38.3932C77.6896 38.2496 77.5538 38.0857 77.457 37.9014C77.3602 37.7144 77.3118 37.4989 77.3118 37.255C77.3118 37.0139 77.3615 36.7944 77.461 36.5965C77.5632 36.3987 77.7071 36.228 77.8927 36.0843C78.0809 35.938 78.3028 35.8255 78.5583 35.7469C78.8138 35.6656 79.0962 35.625 79.4055 35.625C79.8412 35.625 80.2164 35.7063 80.531 35.8689C80.8484 36.0315 81.0918 36.2496 81.2612 36.5234C81.4333 36.7971 81.5194 37.0992 81.5194 37.4298H80.5149C80.5149 37.2347 80.4732 37.0626 80.3898 36.9136C80.3092 36.7618 80.1854 36.6426 80.0187 36.5559C79.8546 36.4692 79.6462 36.4258 79.3934 36.4258C79.154 36.4258 78.955 36.4624 78.7963 36.5356C78.6377 36.6087 78.5193 36.7076 78.4413 36.8323C78.3633 36.957 78.3243 37.0979 78.3243 37.255C78.3243 37.3662 78.3499 37.4678 78.401 37.5599C78.4521 37.6494 78.5301 37.7334 78.635 37.8119C78.7399 37.8878 78.8716 37.9596 79.0303 38.0274C79.189 38.0951 79.3759 38.1602 79.5911 38.2225C79.9165 38.3201 80.2002 38.4285 80.4423 38.5477C80.6843 38.6642 80.886 38.797 81.0474 38.9461C81.2088 39.0951 81.3298 39.2645 81.4105 39.4542C81.4912 39.6412 81.5315 39.8539 81.5315 40.0924C81.5315 40.3417 81.4818 40.5666 81.3822 40.7672C81.2827 40.965 81.1402 41.1344 80.9546 41.2753C80.7717 41.4135 80.5512 41.5205 80.293 41.5964C80.0375 41.6696 79.7524 41.7062 79.4378 41.7062C79.1554 41.7062 78.877 41.6682 78.6027 41.5924C78.3311 41.5165 78.0836 41.4013 77.8604 41.2468C77.6372 41.0897 77.4597 40.8945 77.3279 40.6615C77.1961 40.4257 77.1302 40.1507 77.1302 39.8363H78.1428C78.1428 40.0287 78.1751 40.1927 78.2396 40.3282C78.3069 40.4637 78.3996 40.5748 78.518 40.6615C78.6363 40.7455 78.7735 40.8078 78.9295 40.8485C79.0881 40.8891 79.2576 40.9094 79.4378 40.9094C79.6744 40.9094 79.8721 40.8756 80.0308 40.8078C80.1922 40.7401 80.3132 40.6452 80.3939 40.5233C80.4746 40.4013 80.5149 40.2604 80.5149 40.1005Z" fill="#C9C9C9"/>
</svg>
