<svg width="15" height="20" viewBox="0 0 15 20" fill="none" xmlns="http://www.w3.org/2000/svg">
    <path d="M14.014 10.724c-.055-1.387-1.63-2.066-3.235-.248a.333.333 0 0 0 .5.441c.736-.834 1.376-.965 1.7-.824.193.084.318.273.357.526-.395.02-.79.184-1.079.547-1.034 1.3-1.818 1.305-3.352 1.197a.333.333 0 1 0-.047.665c1.625.115 2.684.106 3.92-1.447.299-.375.818-.362 1.154-.16.137.082.436.315.267.702-1.66 3.813-4.933 1.709-6.204 3.376a1.559 1.559 0 0 0-.3.71H1.56c-.206-.804-.288-1.913.28-3.012C3.106 10.75 6.997 9.355 7.4 10.895c.144.55-.576 1.492-2.23 2.23a.333.333 0 1 0 .27.608c1.846-.822 2.869-2.003 2.605-3.007-.629-2.397-5.318-.696-6.798 2.164-.73 1.411-.544 2.817-.26 3.749.043.14.174.237.32.236H8.5c.184 0 .333.15.333.333V19c0 .184-.15.333-.333.333H1A.334.334 0 0 1 .667 19v-.896a.333.333 0 0 0-.667 0V19c0 .551.449 1 1 1h7.5c.551 0 1-.449 1-1v-1.792c0-.551-.449-1-1-1h-.123c.488-1.798 4.521.574 6.433-3.82.308-.707-.076-1.394-.796-1.664z" fill="#EB5976"/>
    <path d="M7.348 8.905c.45.46 1.188.46 1.638 0l2.677-2.74c.619-.633.171-1.698-.715-1.698h-.04a.333.333 0 0 0 0 .666h.04c.295 0 .445.356.239.567L8.509 8.44a.478.478 0 0 1-.685 0L5.147 5.7a.333.333 0 0 1 .238-.567h.04c.185 0 .334-.149.334-.333V1.145a.48.48 0 0 1 .479-.478h3.857a.48.48 0 0 1 .48.478v2.058a.333.333 0 1 0 .666 0V1.145C11.24.514 10.727 0 10.095 0H6.238c-.632 0-1.145.514-1.145 1.145V4.51c-.688.204-.966 1.1-.423 1.656l2.678 2.74z" fill="#EB5976"/>
    <path d="M9.61 2.431a.333.333 0 0 0-.47 0L6.722 4.848a.334.334 0 0 0 .47.471l2.418-2.417a.333.333 0 0 0 0-.471zM9.208 5.375a.5.5 0 1 0 0-1 .5.5 0 0 0 0 1zM7.167 3.333a.5.5 0 1 0 0-1 .5.5 0 0 0 0 1z" fill="#EB5976"/>
</svg>
