<svg width="20" height="20" viewBox="0 0 20 20" fill="none" xmlns="http://www.w3.org/2000/svg">
    <path d="M19.996 10.299A10.004 10.004 0 0 0 9.848 0C4.375.076-.05 4.6 0 10.074c.025 3.924 2.325 7.298 5.624 8.923.2.1.425-.05.4-.275-.025-.65 0-1.325.125-1.875s.625-2.649.95-4.024c.15-.675.175-1.374.05-2.05A3.54 3.54 0 0 1 7.074 10c0-1.475.85-2.575 1.925-2.575.9 0 1.35.675 1.35 1.5 0 .9-.576 2.275-.875 3.55-.25 1.05.524 1.924 1.574 1.924 1.9 0 3.35-2 3.35-4.874 0-2.55-1.825-4.324-4.45-4.324-3.024 0-4.799 2.274-4.799 4.624 0 .925.35 1.9.8 2.424.075.1.1.2.075.3-.075.325-.25 1.05-.3 1.2-.05.2-.15.225-.35.15-1.324-.65-2.174-2.6-2.174-4.15 0-3.348 2.424-6.423 7.023-6.423 3.675 0 6.55 2.625 6.55 6.149 0 3.674-2.3 6.599-5.525 6.599-.85 0-1.65-.35-2.124-.825a.268.268 0 0 0-.45.125c-.175.625-.425 1.674-.525 2-.15.6-.475 1.3-.825 1.924-.1.15 0 .375.175.4.825.2 1.675.325 2.55.3 5.298-.05 9.797-4.45 9.947-9.698z" fill="#C9C9C9"/>
</svg>
