<svg width="22" height="20" viewBox="0 0 22 20" fill="none" xmlns="http://www.w3.org/2000/svg">
    <path d="M3.553 12.268v6.607c0 .62-.505 1.125-1.126 1.125h-.804a.35.35 0 0 1 0-.702h.804c.234 0 .424-.19.424-.423v-7.136a.424.424 0 0 0-.424-.423H1.125a.424.424 0 0 0-.423.423v6.638a.35.35 0 1 1-.702 0V11.74c0-.621.505-1.126 1.125-1.126h1.302c.53 0 .976.369 1.094.863L6.23 9.92A3.357 3.357 0 0 1 7.9 9.474h3.182c1.043 0 2.032.803 2.032 2.122 0 .89-.57 1.668-1.417 1.937L7.69 14.807a.35.35 0 0 1-.212-.67l4.008-1.273c.555-.176.927-.686.927-1.268v-.09c0-.734-.597-1.33-1.33-1.33H7.9c-.463 0-.92.121-1.32.352l-3.027 1.74zM18.16 11.23l-3.4 2.664a1.08 1.08 0 0 1-.664.229h-1.947a.35.35 0 0 0 0 .702h1.947c.395 0 .785-.135 1.096-.378l3.401-2.665c.772-.604 1.896.038 1.767 1.01a1.09 1.09 0 0 1-.434.738l-5.857 4.353a2.518 2.518 0 0 1-1.493.494H4.868a.35.35 0 0 0 0 .702h7.708c.684 0 1.363-.225 1.911-.632l5.858-4.354c.394-.293.646-.722.71-1.21.212-1.59-1.627-2.646-2.895-1.653zM3.202 9.737a.35.35 0 0 0 .35-.351V1.48c0-.43.35-.778.779-.778h3.958v3.36a.956.956 0 0 0 1.404.845l1.197-.636a.253.253 0 0 1 .238 0l1.196.636a.956.956 0 0 0 1.404-.844V1.798a.35.35 0 0 0-.702 0v2.265a.254.254 0 0 1-.373.224l-1.196-.636a.954.954 0 0 0-.897 0l-1.196.636a.254.254 0 0 1-.373-.224V.702h8.652c.43 0 .778.349.778.778v7.906a.35.35 0 0 0 .702 0V1.48c0-.816-.664-1.48-1.48-1.48H4.331c-.816 0-1.48.664-1.48 1.48v7.906c0 .194.157.35.35.35z" fill="#EB5976"/>
</svg>
