<svg width="20" height="20" viewBox="0 0 20 20" fill="none" xmlns="http://www.w3.org/2000/svg">
    <path d="M19.532 10.481a1.625 1.625 0 0 1 0-.962 4.33 4.33 0 0 0-1.538-4.732 1.626 1.626 0 0 1-.566-.78 4.33 4.33 0 0 0-4.025-2.924 1.625 1.625 0 0 1-.915-.297 4.33 4.33 0 0 0-4.976 0c-.27.19-.586.293-.915.297a4.33 4.33 0 0 0-4.025 2.925 1.625 1.625 0 0 1-.566.779A4.33 4.33 0 0 0 .468 9.519c.097.315.097.647 0 .962a4.33 4.33 0 0 0 1.538 4.732.333.333 0 0 0 .4-.533 3.662 3.662 0 0 1-1.3-4.002 2.29 2.29 0 0 0 0-1.356 3.662 3.662 0 0 1 1.3-4.002 2.29 2.29 0 0 0 .797-1.097A3.662 3.662 0 0 1 6.607 1.75a2.29 2.29 0 0 0 1.29-.419 3.662 3.662 0 0 1 4.207 0c.38.267.825.412 1.29.42a3.662 3.662 0 0 1 3.403 2.472c.15.44.426.82.798 1.097a3.662 3.662 0 0 1 1.3 4.002 2.29 2.29 0 0 0 0 1.356 3.662 3.662 0 0 1-1.3 4.002 2.29 2.29 0 0 0-.797 1.097 3.662 3.662 0 0 1-3.404 2.473 2.29 2.29 0 0 0-1.29.419 3.662 3.662 0 0 1-4.208 0 2.289 2.289 0 0 0-1.29-.419 3.68 3.68 0 0 1-2.878-1.476.333.333 0 0 0-.535.398 4.352 4.352 0 0 0 3.404 1.745c.33.004.646.107.915.297a4.33 4.33 0 0 0 4.976 0c.27-.19.586-.293.915-.297a4.33 4.33 0 0 0 4.025-2.925c.107-.312.303-.581.566-.779a4.33 4.33 0 0 0 1.538-4.732z" fill="#EB5976"/>
    <path d="M16.942 11.049a.333.333 0 0 0 .366-.298c.44-4.334-2.961-8.096-7.308-8.096-4.05 0-7.346 3.295-7.346 7.345S5.95 17.346 10 17.346a7.346 7.346 0 0 0 6.648-4.219.333.333 0 1 0-.603-.284A6.71 6.71 0 0 1 10 16.679 6.686 6.686 0 0 1 3.32 10 6.686 6.686 0 0 1 10 3.321c3.961 0 7.044 3.43 6.644 7.362a.333.333 0 0 0 .298.366z" fill="#EB5976"/>
    <path d="m14.47 7.473-2.373-.344-1.062-2.15c-.423-.859-1.647-.858-2.07 0l-1.14 2.307a.333.333 0 1 0 .598.295l1.14-2.308a.488.488 0 0 1 .875 0l1.138 2.308a.334.334 0 0 0 .251.182l2.547.37c.4.059.56.55.27.833l-1.842 1.796a.333.333 0 0 0-.096.295l.435 2.536c.068.4-.35.703-.708.515l-2.278-1.198a.334.334 0 0 0-.31 0l-2.278 1.198a.488.488 0 0 1-.708-.515l.435-2.536a.333.333 0 0 0-.096-.295L5.355 8.966a.488.488 0 0 1 .27-.833l.762-.11a.333.333 0 1 0-.096-.66l-.761.11c-.947.138-1.325 1.303-.64 1.97l1.717 1.674-.405 2.363c-.162.944.829 1.663 1.675 1.218L10 13.582l2.122 1.116c.847.445 1.837-.275 1.676-1.218l-.406-2.363 1.718-1.674a1.155 1.155 0 0 0-.64-1.97z" fill="#EB5976"/>
</svg>
