<svg width="28" height="20" viewBox="0 0 28 20" fill="none" xmlns="http://www.w3.org/2000/svg">
    <path d="M26.867 3.13C26.56 1.905 25.66.94 24.517.611 22.43 0 14.083 0 14.083 0S5.736 0 3.65.588C2.53.918 1.607 1.906 1.3 3.13.75 5.365.75 10 .75 10s0 4.659.55 6.87c.307 1.224 1.207 2.189 2.35 2.518C5.758 20 14.083 20 14.083 20s8.347 0 10.434-.588c1.142-.33 2.043-1.294 2.35-2.518.55-2.235.55-6.87.55-6.87s.021-4.66-.55-6.895z" fill="#C9C9C9"/>
    <path d="m11.425 14.283 6.941-4.282-6.94-4.283v8.565z" fill="#373737"/>
</svg>
